SplineFontDB: 3.0
FontName: Besley-it-Book
FullName: Besley* Book
FamilyName: Besley*
Weight: Book
Copyright: Copyright (c) 2017, Owen Earl,,, (EwonRael@yahoo.com)
Version: 001.000
ItalicAngle: 0
UnderlinePosition: -100
UnderlineWidth: 50
Ascent: 800
Descent: 200
InvalidEm: 0
LayerCount: 2
Layer: 0 0 "Back" 1
Layer: 1 0 "Fore" 0
XUID: [1021 31 -699969567 16487490]
FSType: 0
OS2Version: 0
OS2_WeightWidthSlopeOnly: 0
OS2_UseTypoMetrics: 1
CreationTime: 1460762150
ModificationTime: 1496410032
PfmFamily: 17
TTFWeight: 400
TTFWidth: 5
LineGap: 90
VLineGap: 0
OS2TypoAscent: 800
OS2TypoAOffset: 0
OS2TypoDescent: -200
OS2TypoDOffset: 0
OS2TypoLinegap: 90
OS2WinAscent: 1310
OS2WinAOffset: 0
OS2WinDescent: 830
OS2WinDOffset: 0
HheadAscent: 1310
HheadAOffset: 0
HheadDescent: -830
HheadDOffset: 0
OS2CapHeight: 750
OS2XHeight: 520
OS2FamilyClass: 1024
OS2Vendor: 'PfEd'
OS2UnicodeRanges: 00000001.00000000.00000000.00000000
Lookup: 5 0 0 "'calt' Contextual Alternates lookup 1" { "'calt' Contextual Alternates lookup 1-1"  } ['calt' ('DFLT' <'dflt' > 'grek' <'dflt' > 'latn' <'dflt' > ) ]
Lookup: 1 0 0 "'ss01' Style Set 1 lookup 2" { "'ss01' Style Set 1 lookup 2-1"  } ['ss01' ('DFLT' <'dflt' > 'grek' <'dflt' > 'latn' <'dflt' > ) ]
Lookup: 4 0 1 "'liga' Standard Ligatures lookup 0" { "Not your mama's contextual ligatures"  } ['liga' ('DFLT' <'dflt' > 'grek' <'dflt' > 'latn' <'dflt' > ) ]
Lookup: 258 0 0 "Kern like there's no tomorrow" { "Get it right" [150,0,5] } ['kern' ('DFLT' <'dflt' > 'grek' <'dflt' > 'latn' <'dflt' > ) ]
MarkAttachClasses: 1
DEI: 91125
KernClass2: 18 15 "Get it right"
 3 A L
 7 D G O Q
 5 F P Y
 3 K X
 1 T
 5 U J C
 3 V W
 3 u z
 9 b c e o p
 5 h n m
 3 k x
 11 r y v w g q
 6 period
 1 a
 27 H M I N l d uniFB02 uniFB04
 1 R
 68 quotedbl quotesingle quoteleft quoteright quotedblleft quotedblright
 3 A J
 7 C G O Q
 1 T
 5 V W Y
 1 X
 11 a m n r z s
 11 d e g o q c
 1 u
 5 v w y
 1 x
 12 period comma
 5 t p j
 37 B D E F H I K M N P R b h k l uniFFFD
 1 U

StartChar: ampersand
Encoding: 38 38 0
Width: 870
Flags: HMW
LayerCount: 2
Fore
SplineSet
587 460 m 2
 745 460 l 2
 777 460 785 466 785 431 c 0
 785 395 766 405 733 405 c 0
 678 405 691 370 679 329 c 0
 660 265 629 205 589 153 c 0
 570 129 576 127 592 101 c 0
 612 70 611 55 665 55 c 2
 709 55 l 2
 732 55 770 65 770 39 c 0
 770 -7 760 0 717 0 c 2
 571 0 l 2
 545 0 536 -1 526 15 c 2
 511 39 l 2
 492 70 488 55 459 39 c 0
 403 8 340 -10 270 -10 c 0
 137 -10 21 57 21 200 c 0
 21 332 115 385 217 427 c 0
 249 440 259 437 240 467 c 2
 225 490 l 2
 200 529 179 578 179 613 c 0
 179 703 264 760 380 760 c 0
 487 760 566 715 566 635 c 0
 566 545 504 497 427 461 c 0
 387 442 373 447 398 407 c 2
 521 213 l 2
 543 179 544 182 566 215 c 0
 596 259 617 307 630 355 c 0
 640 392 650 405 603 405 c 6
 577 405 l 2
 553 405 545 400 545 425 c 0
 545 464 549 460 587 460 c 2
237 377 m 0
 176 343 131 297 131 220 c 0
 131 108 211 55 305 55 c 0
 344 55 381 64 415 80 c 0
 462 102 467 108 440 151 c 2
 303 367 l 2
 280 403 275 398 237 377 c 0
472 640 m 0
 472 687 434 720 379 720 c 0
 322 720 277 693 277 640 c 0
 277 605 304 555 345 490 c 0
 354 476 373 492 385 500 c 0
 436 531 472 572 472 640 c 0
EndSplineSet
EndChar

StartChar: period
Encoding: 46 46 1
Width: 200
Flags: HMW
LayerCount: 2
Fore
SplineSet
40 50 m 0
 40 83 67 110 100 110 c 0
 133 110 160 83 160 50 c 0
 160 17 133 -10 100 -10 c 0
 67 -10 40 17 40 50 c 0
EndSplineSet
EndChar

StartChar: zero
Encoding: 48 48 2
Width: 530
Flags: HMW
LayerCount: 2
Fore
SplineSet
145 280 m 0
 145 128 181 40 265 40 c 0
 359 40 385 128 385 280 c 0
 385 432 359 520 265 520 c 0
 181 520 145 432 145 280 c 0
35 280 m 0
 35 473 142 570 265 570 c 0
 398 570 495 473 495 280 c 0
 495 87 378 -10 265 -10 c 0
 142 -10 35 87 35 280 c 0
EndSplineSet
EndChar

StartChar: one
Encoding: 49 49 3
Width: 530
VWidth: 1155
Flags: HMW
LayerCount: 2
Fore
SplineSet
440 0 m 2
 110 0 l 2
 76 0 55 -11 55 27 c 0
 55 63 69 55 102 55 c 2
 178 55 l 2
 228 55 225 58 225 107 c 2
 225 387 l 2
 225 415 218 410 192 410 c 2
 124 410 l 2
 91 410 72 400 72 437 c 0
 72 469 78 464 108 465 c 0
 190 467 226 480 266 569 c 0
 272 581 270 590 290 590 c 0
 317 590 320 593 320 565 c 2
 320 95 l 2
 320 58 318 55 356 55 c 2
 448 55 l 2
 479 55 480 56 480 25 c 0
 480 -7 470 0 440 0 c 2
EndSplineSet
EndChar

StartChar: two
Encoding: 50 50 4
Width: 530
VWidth: 1155
Flags: HMW
LayerCount: 2
Fore
SplineSet
498 110 m 0
 488 3 439 -30 360 -30 c 0
 253 -30 228 30 145 30 c 0
 125 30 111 25 101 17 c 0
 89 7 88 -20 65 -20 c 0
 24 -20 28 -10 33 26 c 0
 50 147 137 224 242 269 c 0
 345 313 377 356 377 420 c 0
 377 494 341 528 262 528 c 0
 188 528 135 499 135 472 c 0
 135 449 167 444 167 408 c 0
 167 371 137 350 110 350 c 0
 81 350 46 368 46 416 c 0
 46 498 140 570 262 570 c 0
 383 570 488 520 488 410 c 0
 488 330 421 259 257 210 c 0
 211 196 170 171 139 137 c 0
 126 123 114 107 105 91 c 0
 84 55 131 97 180 97 c 0
 280 97 290 63 366 63 c 0
 409 63 435 78 446 108 c 0
 453 126 443 157 471 157 c 0
 508 157 501 141 498 110 c 0
EndSplineSet
EndChar

StartChar: three
Encoding: 51 51 5
Width: 530
VWidth: 1155
Flags: HMW
LayerCount: 2
Fore
SplineSet
30 -1 m 0
 30 47 65 65 94 65 c 0
 121 65 151 44 151 7 c 0
 151 -29 119 -34 119 -57 c 0
 119 -84 162 -118 246 -118 c 0
 355 -118 394 -34 394 40 c 0
 394 106 372 189 249 207 c 0
 225 211 197 201 197 232 c 2
 197 244 l 2
 197 268 220 260 239 262 c 0
 367 274 374 343 374 401 c 0
 374 475 335 528 246 528 c 0
 182 528 149 495 149 468 c 0
 149 445 181 440 181 404 c 0
 181 367 151 346 124 346 c 0
 95 346 60 364 60 412 c 0
 60 494 124 570 266 570 c 0
 367 570 475 521 475 401 c 0
 475 339 461 287 393 256 c 0
 318 222 324 246 397 210 c 4
 473 172 495 109 495 40 c 0
 495 -70 407 -160 256 -160 c 0
 104 -160 30 -83 30 -1 c 0
EndSplineSet
EndChar

StartChar: four
Encoding: 52 52 6
Width: 530
VWidth: 1155
Flags: HMW
LayerCount: 2
Fore
SplineSet
495 -118 m 1
 495 -155 489 -150 453 -150 c 2
 261 -150 l 2
 232 -150 230 -152 230 -122 c 1
 230 -90 246 -94 270 -95 c 1
 325 -95 325 -74 325 -10 c 2
 325 36 l 2
 325 65 324 65 295 65 c 2
 67 65 l 2
 48 65 35 59 35 80 c 0
 35 112 42 123 53 144 c 0
 119 267 256 397 288 514 c 0
 296 543 284 560 321 560 c 2
 351 560 l 2
 394 560 385 540 376 506 c 0
 344 380 207 279 131 172 c 0
 109 141 81 120 143 120 c 2
 295 120 l 2
 328 120 325 124 325 156 c 2
 325 228 l 2
 325 266 337 264 353 282 c 0
 366 297 377 317 387 346 c 0
 391 359 389 370 409 370 c 0
 425 370 420 357 420 342 c 2
 420 164 l 2
 420 126 415 120 455 120 c 0
 492 120 510 130 510 90 c 0
 510 52 477 65 443 65 c 0
 417 65 420 61 420 36 c 2
 420 -2 l 2
 420 -52 421 -95 458 -95 c 0
 478 -95 495 -89 495 -118 c 1
EndSplineSet
EndChar

StartChar: five
Encoding: 53 53 7
Width: 530
VWidth: 1155
Flags: HMW
LayerCount: 2
Fore
SplineSet
40 -11 m 0
 40 37 75 55 104 55 c 0
 131 55 161 34 161 -3 c 0
 161 -39 129 -44 129 -67 c 0
 129 -94 172 -118 226 -118 c 0
 325 -118 394 -44 394 60 c 0
 394 194 335 261 246 261 c 0
 197 261 167 253 140 226 c 0
 124 211 124 197 88 197 c 0
 49 197 65 223 68 253 c 2
 100 527 l 2
 104 565 105 565 148 565 c 2
 247 565 l 0
 349 565 375 552 402 576 c 0
 413 586 414 597 440 597 c 1
 472 605 463 583 458 565 c 0
 440 483 422 475 185 475 c 0
 151 475 145 479 141 447 c 2
 126 319 l 2
 120 264 122 279 158 294 c 0
 184 305 216 310 258 310 c 0
 419 310 495 220 495 80 c 0
 495 -70 377 -160 236 -160 c 0
 114 -160 40 -93 40 -11 c 0
EndSplineSet
EndChar

StartChar: six
Encoding: 54 54 8
Width: 530
VWidth: 1155
Flags: HMW
LayerCount: 2
Fore
SplineSet
400 230 m 0
 400 344 353 411 274 411 c 0
 210 411 159 368 139 312 c 0
 128 280 128 245 134 208 c 0
 148 120 187 35 270 35 c 4
 359 35 400 146 400 230 c 0
353 651 m 0
 353 664 338 678 299 678 c 0
 196 678 150 573 135 446 c 0
 126 371 127 387 166 418 c 0
 199 444 242 460 296 460 c 0
 407 460 500 380 500 230 c 0
 500 110 410 -10 269 -10 c 0
 108 -10 30 110 30 350 c 0
 30 550 133 720 294 720 c 0
 376 720 450 683 450 601 c 0
 450 553 415 535 386 535 c 0
 359 535 329 556 329 593 c 0
 329 629 353 638 353 651 c 0
EndSplineSet
EndChar

StartChar: seven
Encoding: 55 55 9
Width: 540
VWidth: 1155
Flags: HMW
LayerCount: 2
Fore
SplineSet
38 444 m 0
 49 548 97 580 175 580 c 0
 272 580 307 520 390 520 c 0
 414 520 430 527 440 539 c 0
 455 556 447 570 482 570 c 0
 512 570 512 567 504 540 c 0
 482 465 392 339 333 218 c 0
 287 124 279 86 279 42 c 0
 279 -31 312 -46 312 -92 c 0
 312 -129 292 -160 248 -160 c 0
 209 -160 182 -123 182 -54 c 0
 182 35 208 127 274 231 c 0
 311 289 354 357 389 418 c 4
 400 437 427 464 397 457 c 0
 385 454 371 453 355 453 c 0
 255 453 245 487 169 487 c 0
 130 487 106 475 93 450 c 0
 82 428 95 393 58 393 c 0
 25 393 35 418 38 444 c 0
EndSplineSet
EndChar

StartChar: eight
Encoding: 56 56 10
Width: 530
VWidth: 1155
Flags: HMW
LayerCount: 2
Fore
SplineSet
160 530 m 0
 160 456 196 385 265 385 c 0
 334 385 370 456 370 530 c 0
 370 604 334 675 265 675 c 0
 196 675 160 604 160 530 c 0
60 530 m 0
 60 640 144 720 265 720 c 0
 386 720 470 640 470 530 c 0
 470 466 443 415 394 387 c 4
 356 365 357 367 398 348 c 0
 458 320 490 265 490 190 c 0
 490 70 406 -10 265 -10 c 0
 124 -10 40 70 40 190 c 0
 40 262 71 314 125 344 c 0
 158 362 189 364 153 378 c 4
 93 400 60 459 60 530 c 0
140 190 m 0
 140 106 176 35 265 35 c 0
 354 35 390 106 390 190 c 0
 390 274 354 345 265 345 c 0
 176 345 140 274 140 190 c 0
EndSplineSet
EndChar

StartChar: nine
Encoding: 57 57 11
Width: 530
VWidth: 1155
Flags: HMW
LayerCount: 2
Fore
SplineSet
130 330 m 0
 130 216 177 149 256 149 c 0
 339 149 400 220 400 300 c 0
 400 404 350 525 251 525 c 0
 162 525 130 414 130 330 c 0
177 -91 m 0
 177 -104 192 -118 231 -118 c 0
 333 -118 380 -15 395 110 c 0
 403 176 409 181 370 147 c 4
 337 118 291 100 234 100 c 0
 123 100 30 180 30 330 c 0
 30 450 120 570 261 570 c 0
 422 570 500 450 500 210 c 0
 500 10 397 -160 236 -160 c 0
 154 -160 80 -123 80 -41 c 0
 80 7 115 25 144 25 c 0
 171 25 201 4 201 -33 c 0
 201 -69 177 -78 177 -91 c 0
EndSplineSet
EndChar

StartChar: A
Encoding: 65 65 12
Width: 920
Flags: HMW
LayerCount: 2
Fore
SplineSet
512 722 m 2
 767 82 l 2
 777 56 779 55 816 55 c 2
 868 55 l 2
 894 55 890 49 890 24 c 0
 890 -10 869 0 838 0 c 2
 606 0 l 2
 568 0 560 -6 560 34 c 0
 560 63 576 55 602 55 c 0
 664 55 671 50 653 98 c 2
 620 186 l 2
 612 208 614 220 582 220 c 2
 310 220 l 2
 266 220 262 219 249 188 c 2
 208 92 l 2
 192 55 189 55 242 55 c 2
 286 55 l 6
 303 55 310 52 310 36 c 0
 310 7 315 0 284 0 c 2
 52 0 l 2
 26 0 30 5 30 30 c 0
 30 60 36 55 64 55 c 0
 115 55 127 52 143 88 c 2
 417 722 l 2
 428 748 426 765 466 765 c 0
 505 765 502 748 512 722 c 2
413 572 m 2
 309 330 l 2
 289 282 275 275 348 275 c 2
 538 275 l 2
 574 275 590 267 578 298 c 2
 464 602 l 2
 437 673 434 622 413 572 c 2
EndSplineSet
EndChar

StartChar: B
Encoding: 66 66 13
Width: 770
Flags: HMW
LayerCount: 2
Fore
SplineSet
285 415 m 2
 430 415 l 2
 506 415 580 456 580 555 c 0
 580 654 506 695 430 695 c 2
 287 695 l 2
 248 695 245 698 245 658 c 2
 245 472 l 2
 245 427 237 415 285 415 c 2
440 55 m 2
 526 55 600 111 600 210 c 0
 600 309 526 360 440 360 c 2
 309 360 l 2
 262 360 245 371 245 320 c 2
 245 108 l 2
 245 48 253 55 311 55 c 2
 440 55 l 2
450 0 m 0
 85 0 l 2
 49 0 40 11 40 32 c 4
 40 58 82 55 111 55 c 4
 133 55 150 70 150 116 c 2
 150 648 l 2
 150 700 144 695 93 695 c 0
 56 695 40 685 40 726 c 0
 40 765 96 750 131 750 c 2
 430 750 l 0
 581 750 680 685 680 555 c 0
 680 475 647 428 583 403 c 0
 514 376 568 388 615 366 c 0
 676 337 710 287 710 210 c 0
 710 60 611 0 450 0 c 0
EndSplineSet
EndChar

StartChar: C
Encoding: 67 67 14
Width: 785
Flags: HMW
LayerCount: 2
Fore
SplineSet
752 263 m 4
 730 106 610 -10 420 -10 c 0
 207 -10 55 152 55 375 c 0
 55 598 232 760 435 760 c 0
 524 760 595 725 645 678 c 0
 675 650 671 655 684 699 c 0
 692 726 687 755 725 755 c 0
 745 755 745 755 745 735 c 2
 745 529 l 2
 745 494 744 495 709 495 c 0
 679 495 687 524 678 547 c 0
 646 630 559 702 440 702 c 0
 266 702 170 557 170 375 c 0
 170 193 256 49 430 49 c 0
 581 49 674 153 696 265 c 0
 701 293 698 295 731 295 c 0
 760 295 756 288 752 263 c 4
EndSplineSet
EndChar

StartChar: D
Encoding: 68 68 15
Width: 825
Flags: HMW
LayerCount: 2
Fore
SplineSet
287 55 m 2
 410 55 l 2
 594 55 655 193 655 375 c 0
 655 557 584 695 410 695 c 2
 283 695 l 2
 248 695 245 697 245 661 c 2
 245 91 l 2
 245 52 249 55 287 55 c 2
410 0 m 2
 83 0 l 2
 55 0 40 -8 40 23 c 0
 40 53 38 55 69 55 c 2
 115 55 l 2
 155 55 150 62 150 101 c 2
 150 675 l 2
 150 700 142 695 119 695 c 2
 61 695 l 2
 32 695 40 709 40 735 c 0
 40 755 49 750 67 750 c 2
 410 750 l 2
 633 750 770 588 770 375 c 0
 770 162 623 0 410 0 c 2
EndSplineSet
EndChar

StartChar: E
Encoding: 69 69 16
Width: 725
Flags: HMW
LayerCount: 2
Fore
SplineSet
95 695 m 0
 58 695 40 685 40 725 c 0
 40 759 56 750 87 750 c 2
 631 750 l 2
 694 750 685 738 685 677 c 2
 685 563 l 2
 685 535 694 515 663 515 c 0
 628 515 636 527 634 557 c 0
 627 661 589 695 485 695 c 2
 291 695 l 2
 244 695 245 694 245 647 c 2
 245 455 l 2
 245 409 244 408 291 408 c 2
 330 408 l 2
 405 408 440 444 448 497 c 0
 451 519 447 523 473 523 c 0
 507 523 495 491 495 461 c 2
 495 283 l 2
 495 256 500 248 471 248 c 0
 439 248 448 288 437 311 c 0
 420 345 387 368 330 368 c 2
 275 368 l 2
 245 368 245 367 245 337 c 2
 245 95 l 2
 245 50 251 55 295 55 c 2
 475 55 l 2
 598 55 637 90 644 211 c 0
 645 236 636 255 667 255 c 0
 696 255 695 254 695 225 c 2
 695 45 l 2
 695 3 698 0 655 0 c 2
 81 0 l 2
 47 0 40 -5 40 31 c 0
 40 68 76 55 109 55 c 0
 156 55 150 63 150 109 c 6
 150 639 l 2
 150 694 151 695 95 695 c 0
EndSplineSet
EndChar

StartChar: F
Encoding: 70 70 17
Width: 715
Flags: HMW
LayerCount: 2
Fore
SplineSet
123 695 m 2
 67 695 l 2
 36 695 40 701 40 731 c 0
 40 754 45 750 67 750 c 2
 631 750 l 2
 657 750 675 759 675 729 c 2
 675 571 l 2
 675 536 686 515 647 515 c 0
 617 515 626 532 624 557 c 0
 617 661 579 695 475 695 c 2
 277 695 l 2
 246 695 245 696 245 665 c 2
 245 441 l 2
 245 410 238 398 271 398 c 2
 340 398 l 2
 408 398 443 421 455 463 c 0
 462 488 451 503 485 503 c 0
 514 503 505 481 505 455 c 2
 505 295 l 2
 505 270 515 238 487 238 c 4
 447 238 462 263 451 290 c 0
 436 326 402 348 340 348 c 2
 271 348 l 2
 242 348 245 345 245 317 c 2
 245 103 l 2
 245 55 245 55 293 55 c 2
 329 55 l 2
 357 55 365 61 365 31 c 0
 365 -6 357 0 323 0 c 2
 95 0 l 6
 53 0 40 1 40 25 c 0
 40 44 42 55 81 55 c 4
 107 55 150 44 150 99 c 2
 150 643 l 2
 150 676 160 695 123 695 c 2
EndSplineSet
EndChar

StartChar: G
Encoding: 71 71 18
Width: 875
Flags: HMW
LayerCount: 2
Fore
SplineSet
553 370 m 2
 831 370 l 2
 860 370 855 362 855 335 c 0
 855 312 860 305 835 305 c 2
 791 305 l 2
 759 305 755 308 755 275 c 2
 755 241 l 2
 755 205 752 188 739 159 c 0
 702 77 600 -10 420 -10 c 0
 212 -10 55 152 55 375 c 0
 55 598 232 760 435 760 c 0
 533 760 608 727 659 676 c 0
 664 671 669 666 673 661 c 1
 686 703 l 2
 693 726 689 750 721 750 c 0
 755 750 745 729 745 699 c 2
 745 541 l 2
 745 505 752 495 713 495 c 0
 683 495 690 505 685 529 c 0
 667 620 606 704 442 704 c 0
 278 704 170 557 170 375 c 0
 170 193 256 45 425 45 c 0
 527 45 593 90 627 139 c 0
 647 167 650 185 650 231 c 2
 650 267 l 2
 650 296 656 305 625 305 c 2
 549 305 l 2
 522 305 525 309 525 335 c 0
 525 365 521 370 553 370 c 2
EndSplineSet
EndChar

StartChar: H
Encoding: 72 72 19
Width: 890
Flags: HMW
LayerCount: 2
Fore
SplineSet
245 653 m 2
 245 447 l 2
 245 415 245 415 277 415 c 2
 591 415 l 2
 644 415 645 414 645 467 c 2
 645 669 l 2
 645 697 642 695 615 695 c 2
 565 695 l 2
 523 695 525 697 525 739 c 0
 525 757 553 750 569 750 c 2
 783 750 l 2
 816 750 850 763 850 725 c 0
 850 682 823 695 785 695 c 0
 734 695 740 687 740 637 c 2
 740 101 l 2
 740 65 733 55 771 55 c 6
 793 55 l 2
 824 55 850 66 850 31 c 0
 850 1 851 0 821 0 c 2
 579 0 l 2
 555 0 525 -10 525 17 c 0
 525 43 518 55 547 55 c 2
 611 55 l 2
 647 55 645 58 645 93 c 2
 645 337 l 2
 645 359 646 360 623 360 c 2
 309 360 l 2
 231 360 245 340 245 267 c 2
 245 109 l 2
 245 69 236 55 279 55 c 2
 341 55 l 2
 362 55 365 57 365 35 c 0
 365 5 369 0 337 0 c 2
 69 0 l 2
 47 0 40 -5 40 19 c 0
 40 58 43 55 81 55 c 0
 137 55 150 45 150 105 c 2
 150 679 l 2
 150 706 107 695 83 695 c 0
 50 695 40 688 40 723 c 0
 40 754 45 750 75 750 c 2
 297 750 l 2
 337 750 365 763 365 719 c 0
 365 681 323 695 289 695 c 0
 246 695 245 696 245 653 c 2
EndSplineSet
EndChar

StartChar: I
Encoding: 73 73 20
Width: 405
Flags: HMW
LayerCount: 2
Fore
SplineSet
245 675 m 6
 245 127 l 2
 245 83 231 55 280 55 c 2
 328 55 l 2
 363 55 365 57 365 21 c 0
 365 -9 345 0 318 0 c 2
 128 0 l 2
 101 0 40 -12 40 17 c 0
 40 42 33 55 60 55 c 2
 112 55 l 2
 150 55 150 55 150 93 c 2
 150 655 l 2
 150 710 122 695 72 695 c 0
 41 695 40 694 40 725 c 0
 40 758 54 750 84 750 c 2
 330 750 l 2
 362 750 365 752 365 719 c 0
 365 697 367 695 344 695 c 2
 298 695 l 2
 271 695 245 705 245 675 c 6
EndSplineSet
EndChar

StartChar: J
Encoding: 74 74 21
Width: 596
Flags: HMW
LayerCount: 2
Fore
SplineSet
446 669 m 2
 446 270 l 2
 446 110 367 -10 206 -10 c 0
 69 -10 10 75 10 145 c 0
 10 207 49 240 89 240 c 0
 124 240 153 217 153 181 c 0
 153 116 109 132 109 90 c 0
 109 73 124 45 206 45 c 0
 297 45 351 100 351 240 c 2
 351 656 l 2
 351 707 291 695 246 695 c 0
 219 695 211 690 211 719 c 0
 211 760 228 750 266 750 c 2
 534 750 l 2
 570 750 567 744 566 709 c 0
 565 688 519 695 490 695 c 0
 470 695 446 695 446 669 c 2
EndSplineSet
EndChar

StartChar: K
Encoding: 75 75 22
Width: 870
Flags: HMW
LayerCount: 2
Fore
SplineSet
840 0 m 2
 572 0 l 2
 540 0 545 7 545 37 c 0
 545 57 547 55 566 55 c 2
 620 55 l 2
 662 55 626 80 613 97 c 2
 418 355 l 2
 397 383 398 389 373 363 c 2
 295 283 l 2
 270 258 245 238 245 187 c 6
 245 81 l 2
 245 46 262 55 294 55 c 2
 340 55 l 2
 362 55 365 58 365 35 c 0
 365 -3 361 0 324 0 c 2
 90 0 l 2
 65 0 40 -10 40 19 c 0
 40 56 41 55 78 55 c 0
 133 55 150 44 150 103 c 2
 150 643 l 2
 150 677 160 695 122 695 c 2
 82 695 l 2
 48 695 40 689 40 725 c 0
 40 761 64 750 96 750 c 2
 328 750 l 2
 360 750 365 754 365 721 c 0
 365 692 362 695 334 695 c 2
 286 695 l 2
 242 695 245 692 245 649 c 2
 245 369 l 6
 245 287 269 333 302 367 c 2
 579 653 l 2
 597 672 630 695 586 695 c 2
 544 695 l 2
 517 695 510 690 510 719 c 0
 510 750 511 750 542 750 c 2
 766 750 l 2
 796 750 810 758 810 725 c 0
 810 693 807 695 776 695 c 2
 720 695 l 2
 688 695 686 686 671 671 c 2
 480 475 l 2
 449 443 467 436 493 403 c 2
 741 85 l 2
 763 56 775 55 828 55 c 0
 863 55 875 63 875 25 c 0
 875 -5 868 0 840 0 c 2
EndSplineSet
EndChar

StartChar: L
Encoding: 76 76 23
Width: 730
Flags: HMW
LayerCount: 2
Fore
SplineSet
123 695 m 6
 71 695 l 2
 46 695 40 691 40 717 c 0
 40 752 43 750 77 750 c 2
 313 750 l 2
 347 750 355 756 355 719 c 0
 355 681 314 695 281 695 c 0
 246 695 245 696 245 661 c 2
 245 95 l 2
 245 47 256 55 301 55 c 2
 470 55 l 2
 590 55 630 103 638 207 c 0
 641 239 631 255 669 255 c 0
 700 255 690 232 690 205 c 2
 690 53 l 2
 690 11 698 0 653 0 c 2
 103 0 l 2
 85 0 40 -8 40 11 c 0
 40 27 33 55 51 55 c 2
 113 55 l 6
 159 55 150 102 150 151 c 2
 150 665 l 2
 150 693 152 695 123 695 c 6
EndSplineSet
EndChar

StartChar: M
Encoding: 77 77 24
Width: 1035
Flags: HMW
LayerCount: 2
Fore
SplineSet
96 695 m 0
 62 695 65 698 65 731 c 0
 65 756 77 750 100 750 c 2
 266 750 l 2
 318 750 314 736 326 699 c 2
 500 171 l 2
 514 128 514 106 531 159 c 2
 710 701 l 2
 728 757 747 750 820 750 c 2
 918 750 l 2
 955 750 970 759 970 719 c 0
 970 694 969 695 944 695 c 2
 904 695 l 2
 859 695 862 691 864 649 c 2
 883 189 l 2
 886 103 862 55 960 55 c 0
 989 55 1000 62 1000 31 c 0
 1000 -1 998 0 966 0 c 2
 728 0 l 2
 693 0 675 -10 675 29 c 0
 675 63 689 55 720 55 c 0
 796 55 792 58 790 131 c 2
 777 637 l 2
 776 676 764 666 756 641 c 2
 554 33 l 2
 544 4 549 -10 507 -10 c 0
 469 -10 473 0 464 27 c 6
 253 659 l 2
 243 689 236 688 235 656 c 2
 215 135 l 2
 213 81 196 55 258 55 c 0
 291 55 330 68 330 31 c 0
 330 -6 321 0 286 0 c 2
 80 0 l 2
 57 0 35 -9 35 17 c 0
 35 56 37 55 76 55 c 0
 130 55 148 44 150 99 c 2
 175 643 l 2
 178 707 159 695 96 695 c 0
EndSplineSet
EndChar

StartChar: N
Encoding: 78 78 25
Width: 875
Flags: HMW
LayerCount: 2
Fore
SplineSet
104 695 m 4
 65 695 40 683 40 726 c 0
 40 758 55 750 84 750 c 2
 200 750 l 2
 258 750 261 730 285 698 c 2
 645 226 l 2
 673 190 685 171 685 234 c 6
 685 658 l 2
 685 683 692 695 664 695 c 2
 612 695 l 2
 580 695 575 691 575 724 c 0
 575 755 583 750 612 750 c 2
 802 750 l 2
 822 750 855 759 855 736 c 0
 855 683 835 695 786 695 c 0
 751 695 750 696 750 660 c 2
 750 48 l 2
 750 25 760 -10 734 -10 c 0
 708 -10 706 2 695 16 c 2
 255 588 l 2
 224 629 210 671 210 578 c 2
 210 82 l 2
 210 50 218 55 248 55 c 2
 282 55 l 2
 317 55 325 61 325 24 c 0
 325 -3 322 0 296 0 c 2
 82 0 l 2
 41 0 40 -1 40 40 c 0
 40 60 48 55 66 55 c 2
 108 55 l 2
 153 55 145 66 145 108 c 2
 145 640 l 2
 145 686 152 695 104 695 c 4
EndSplineSet
EndChar

StartChar: O
Encoding: 79 79 26
Width: 830
Flags: HMW
LayerCount: 2
Fore
SplineSet
170 375 m 0
 170 193 241 40 415 40 c 0
 599 40 660 193 660 375 c 0
 660 557 589 710 415 710 c 0
 241 710 170 557 170 375 c 0
55 375 m 0
 55 588 192 760 415 760 c 0
 638 760 775 588 775 375 c 0
 775 162 628 -10 415 -10 c 0
 192 -10 55 162 55 375 c 0
EndSplineSet
EndChar

StartChar: P
Encoding: 80 80 27
Width: 695
Flags: HMW
LayerCount: 2
Fore
SplineSet
274 385 m 6
 395 385 l 2
 491 385 545 451 545 540 c 0
 545 629 491 695 395 695 c 2
 280 695 l 2
 242 695 245 692 245 655 c 2
 245 407 l 2
 245 382 250 385 274 385 c 6
118 695 m 6
 66 695 l 2
 46 695 40 691 40 713 c 2
 40 729 l 2
 40 752 42 750 64 750 c 2
 395 750 l 2
 576 750 655 670 655 540 c 0
 655 410 576 330 395 330 c 2
 292 330 l 2
 265 330 245 339 245 309 c 2
 245 83 l 2
 245 50 253 55 284 55 c 2
 320 55 l 2
 336 55 355 62 355 43 c 0
 355 5 359 0 320 0 c 2
 72 0 l 2
 42 0 40 -2 40 29 c 0
 40 60 47 55 76 55 c 2
 118 55 l 2
 156 55 150 63 150 99 c 2
 150 679 l 2
 150 701 138 695 118 695 c 6
EndSplineSet
EndChar

StartChar: Q
Encoding: 81 81 28
Width: 830
Flags: HMW
LayerCount: 2
Fore
SplineSet
594 121 m 0
 642 183 660 275 660 375 c 0
 660 557 589 710 415 710 c 0
 241 710 170 557 170 375 c 0
 170 319 177 265 191 218 c 0
 196 203 200 187 208 174 c 0
 228 138 220 156 238 210 c 0
 254 258 293 303 362 303 c 0
 454 303 517 210 556 118 c 4
 573 78 575 97 594 121 c 0
334 53 m 0
 358 45 385 40 415 40 c 0
 439 40 461 44 482 48 c 4
 523 56 506 62 495 88 c 0
 468 154 434 210 364 210 c 0
 304 210 272 156 281 108 c 0
 287 77 305 63 334 53 c 0
55 375 m 0
 55 588 192 760 415 760 c 0
 638 760 775 588 775 375 c 0
 775 250 725 138 639 68 c 0
 607 42 590 43 616 4 c 0
 633 -21 649 -37 668 -37 c 0
 712 -37 738 -5 749 34 c 0
 757 64 744 82 782 82 c 0
 805 82 805 66 802 40 c 0
 790 -54 742 -125 660 -125 c 0
 596 -125 557 -78 536 -15 c 4
 521 28 480 -10 415 -10 c 0
 192 -10 55 162 55 375 c 0
EndSplineSet
EndChar

StartChar: R
Encoding: 82 82 29
Width: 775
Flags: HMW
LayerCount: 2
Fore
SplineSet
280 405 m 2
 435 405 l 2
 511 405 585 451 585 550 c 0
 585 649 511 695 435 695 c 2
 294 695 l 2
 263 695 245 704 245 670 c 2
 245 462 l 2
 245 421 235 405 280 405 c 2
786 50 m 0
 765 14 726 -10 675 -10 c 0
 442 -10 661 345 405 345 c 2
 284 345 l 2
 248 345 245 347 245 310 c 2
 245 104 l 2
 245 65 238 55 280 55 c 2
 322 55 l 2
 345 55 355 61 355 36 c 0
 355 -12 334 0 290 0 c 2
 64 0 l 2
 41 0 40 -1 40 22 c 0
 40 61 49 55 86 55 c 2
 108 55 l 2
 144 55 150 50 150 88 c 2
 150 660 l 2
 150 690 154 695 122 695 c 2
 64 695 l 2
 35 695 40 703 40 730 c 0
 40 758 55 750 80 750 c 2
 435 750 l 2
 616 750 685 660 685 550 c 0
 685 473 654.670898438 412.02734375 572 385 c 4
 520 368 517 374 563 350 c 4
 706.29296875 275.23828125 593 57 701 57 c 0
 716 57 736 62 752 76 c 0
 769 91 764 105 788 91 c 0
 805 81 796 66 786 50 c 0
EndSplineSet
Substitution2: "'ss01' Style Set 1 lookup 2-1" uniFFFD
EndChar

StartChar: S
Encoding: 83 83 30
Width: 640
Flags: HMW
LayerCount: 2
Fore
SplineSet
516 570 m 4
 492 654 422 709 330 709 c 0
 214 709 170 654 170 585 c 0
 170 375 610 510 610 210 c 0
 610 70 511 -15 340 -15 c 0
 268 -15 203 13 158 50 c 0
 126 76 131 61 116 22 c 0
 108 1 109 -5 78 -5 c 0
 46 -5 50 1 50 32 c 2
 50 198 l 2
 50 231 39 255 76 255 c 0
 103 255 103 257 106 232 c 0
 117 138 197 36 330 36 c 0
 466 36 520 116 520 185 c 0
 520 415 80 275 80 555 c 0
 80 695 189 760 320 760 c 0
 372 760 420 745 458 721 c 0
 479 708 493 677 505 704 c 2
 518 734 l 2
 525 750 527 750 550 750 c 0
 570 750 580 756 580 734 c 2
 580 556 l 2
 580 520 589 505 550 505 c 0
 512 505 524 541 516 570 c 4
EndSplineSet
EndChar

StartChar: T
Encoding: 84 84 31
Width: 715
Flags: HMW
LayerCount: 2
Fore
SplineSet
490 0 m 6
 236 0 l 2
 209 0 180 -11 180 20 c 2
 180 42 l 2
 180 63 211 55 230 55 c 2
 282 55 l 2
 317 55 310 65 310 98 c 2
 310 664 l 2
 310 713 285 700 240 700 c 0
 133 700 90 671 76 584 c 0
 73 565 81 495 52 495 c 0
 10 495 20 513 20 552 c 2
 20 726 l 2
 20 763 54 750 86 750 c 2
 648 750 l 2
 685 750 695 757 695 718 c 2
 695 546 l 2
 695 521 705 495 676 495 c 0
 632 495 645 526 642 560 c 0
 632 666 591 700 475 700 c 2
 436 700 l 2
 410 700 405 704 405 676 c 2
 405 118 l 2
 405 63 399 55 456 55 c 2
 506 55 l 2
 532 55 535 57 535 30 c 2
 535 12 l 2
 535 -8 507 0 490 0 c 6
EndSplineSet
EndChar

StartChar: U
Encoding: 85 85 32
Width: 820
Flags: HMW
LayerCount: 2
Fore
SplineSet
594 695 m 2
 540 695 l 2
 525 695 510 689 510 706 c 2
 510 734 l 2
 510 752 513 750 530 750 c 2
 756 750 l 2
 780 750 805 759 805 732 c 0
 805 692 801 695 762 695 c 0
 733 695 695 707 695 674 c 2
 695 300 l 2
 695 85 613 -15 415 -15 c 0
 202 -15 125 117 125 300 c 2
 125 644 l 2
 125 687 131 695 86 695 c 2
 66 695 l 2
 45 695 15 686 15 710 c 2
 15 738 l 2
 15 757 34 750 50 750 c 2
 324 750 l 2
 344 750 340 736 340 724 c 0
 340 704 342 697 278 695 c 4
 253 694 220 706 220 668 c 2
 220 310 l 2
 220 158 266 45 430 45 c 0
 584 45 635 118 635 300 c 2
 635 664 l 2
 635 700 629 695 594 695 c 2
EndSplineSet
EndChar

StartChar: V
Encoding: 86 86 33
Width: 860
Flags: HMW
LayerCount: 2
Fore
SplineSet
491 181 m 2
 690 667 l 6
 698 688 702 695 662 695 c 2
 606 695 l 2
 580 695 580 695 580 721 c 0
 580 762 605 750 642 750 c 2
 832 750 l 2
 857 750 860 753 860 727 c 0
 860 694 859 695 826 695 c 2
 794 695 l 6
 748 695 748 672 721 607 c 6
 492 51 l 2
 479 20 481 -15 434 -15 c 0
 394 -15 389 34 378 61 c 2
 131 653 l 2
 118 683 121 695 76 695 c 2
 38 695 l 2
 1 695 0 694 0 731 c 0
 0 759 19 750 44 750 c 2
 302 750 l 2
 325 750 330 752 330 729 c 0
 330 709 332 695 292 695 c 0
 232 695 220 701 240 651 c 2
 443 147 l 2
 469 84 473 136 491 181 c 2
EndSplineSet
EndChar

StartChar: W
Encoding: 87 87 34
Width: 1190
Flags: HMW
LayerCount: 2
Fore
SplineSet
453 244 m 6
 565 547 l 2
 582 594 587 614 572 664 c 0
 562 696 558 695 517 695 c 0
 484 695 475 689 475 724 c 0
 475 756 484 750 514 750 c 2
 694 750 l 2
 722 750 755 761 755 730 c 0
 755 683 734 695 691 695 c 0
 649 695 666 680 674 652 c 2
 807 202 l 2
 833 113 834 148 858 220 c 2
 998 637 l 2
 1007 665 1024 695 988 695 c 6
 922 695 l 2
 898 695 905 708 905 730 c 0
 905 758 921 750 946 750 c 2
 1138 750 l 2
 1175 750 1185 757 1185 718 c 0
 1185 681 1141 695 1108 695 c 0
 1065 695 1070 679 1060 649 c 2
 865 64 l 2
 855 34 856 -10 814 -10 c 0
 764 -10 768 31 757 67 c 2
 632 469 l 2
 613 531 614 523 593 466 c 2
 447 64 l 2
 436 33 436 -10 391 -10 c 4
 341 -10 351 14 330 76 c 6
 126 661 l 2
 113 697 106 695 58 695 c 0
 20 695 5 686 5 727 c 0
 5 763 44 750 76 750 c 2
 280 750 l 2
 316 750 335 760 335 721 c 0
 335 683 308 695 274 695 c 0
 218 695 212 700 227 655 c 2
 385 187 l 2
 421 80 427 174 453 244 c 6
EndSplineSet
EndChar

StartChar: X
Encoding: 88 88 35
Width: 870
Flags: HMW
LayerCount: 2
Fore
SplineSet
101 750 m 6
 345 750 l 2
 376 750 375 748 375 717 c 0
 375 683 343 695 313 695 c 0
 252 695 268 689 292 657 c 2
 431 475 l 2
 448 453 449 443 467 467 c 2
 620 663 l 2
 639 687 657 695 607 695 c 2
 549 695 l 2
 526 695 525 694 525 717 c 2
 525 737 l 2
 525 758 551 750 569 750 c 2
 785 750 l 6
 817 750 825 756 825 721 c 0
 825 699 818 695 805 695 c 6
 749 695 l 2
 705 695 703 686 685 663 c 2
 518 445 l 2
 494 414 482 409 507 377 c 2
 717 103 l 2
 737 77 740 55 789 55 c 2
 829 55 l 2
 854 55 860 59 860 33 c 0
 860 12 866 0 843 0 c 2
 581 0 l 2
 550 0 530 -10 530 25 c 0
 530 44 524 55 545 55 c 2
 583 55 l 2
 649 55 627 65 602 97 c 2
 443 305 l 2
 424 330 424 343 402 315 c 2
 213 75 l 2
 190 45 217 55 257 55 c 0
 288 55 310 65 310 31 c 0
 310 3 312 0 283 0 c 2
 51 0 l 2
 20 0 10 -7 10 27 c 0
 10 58 13 55 43 55 c 2
 107 55 l 2
 142 55 147 76 162 95 c 2
 370 357 l 2
 390 382 383 384 364 409 c 2
 171 663 l 2
 152 688 149 695 103 695 c 0
 73 695 45 684 45 717 c 0
 45 760 62 750 101 750 c 6
EndSplineSet
EndChar

StartChar: Y
Encoding: 89 89 36
Width: 785
Flags: HMW
LayerCount: 2
Fore
SplineSet
28 750 m 6
 282 750 l 2
 301 750 330 758 330 737 c 0
 330 708 338 695 306 695 c 2
 242 695 l 2
 189 695 221 675 237 651 c 2
 388 425 l 2
 416 383 415 385 442 427 c 2
 604 675 l 2
 619 698 614 695 580 695 c 2
 524 695 l 2
 496 695 485 688 485 719 c 0
 485 742 480 750 504 750 c 2
 742 750 l 2
 774 750 785 757 785 723 c 0
 785 696 786 695 758 695 c 2
 716 695 l 2
 676 695 675 678 660 655 c 2
 469 361 l 2
 457 342 450 334 450 301 c 2
 450 99 l 2
 450 56 449 55 492 55 c 2
 542 55 l 2
 575 55 570 48 570 17 c 0
 570 -8 552 0 530 0 c 2
 292 0 l 2
 255 0 245 -7 245 33 c 0
 245 55 246 55 268 55 c 2
 314 55 l 2
 350 55 355 51 355 89 c 2
 355 273 l 2
 355 315 344 325 328 349 c 2
 118 663 l 2
 103 685 103 695 64 695 c 2
 34 695 l 2
 1 695 0 694 0 727 c 0
 0 753 3 750 28 750 c 6
EndSplineSet
EndChar

StartChar: Z
Encoding: 90 90 37
Width: 735
Flags: HMW
LayerCount: 2
Fore
SplineSet
75 577 m 2
 75 729 l 2
 75 760 100 750 128 750 c 2
 608 750 l 2
 637 750 655 759 655 727 c 0
 655 683 639 674 620 651 c 2
 226 151 l 2
 173 84 111 55 256 55 c 2
 475 55 l 2
 596 55 636 89 644 205 c 0
 646 235 635 255 672 255 c 0
 700 255 695 247 695 221 c 2
 695 47 l 2
 695 -5 689 0 638 0 c 2
 98 0 l 2
 69 0 35 -7 35 26 c 4
 35 78 60 87 82 115 c 2
 516 665 l 2
 537 692 547 695 496 695 c 2
 295 695 l 2
 179 695 138 664 128 571 c 0
 125 547 136 515 104 515 c 0
 63 515 75 540 75 577 c 2
EndSplineSet
EndChar

StartChar: a
Encoding: 97 97 38
Width: 556
VWidth: 1155
Flags: HMW
LayerCount: 2
Fore
SplineSet
174 393 m 0
 174 359 153 340 119 340 c 0
 88 340 60 359 60 403 c 0
 60 480 152 530 253 530 c 0
 403 530 441 448 441 367 c 2
 441 71 l 2
 441 51 453 42 467 42 c 0
 477 42 488 44 500 56 c 0
 513 68 513 85 534 73 c 0
 559 58 541 40 524 23 c 0
 501 0 472 -10 443 -10 c 0
 411 -10 381 1 364 26 c 0
 344 56 364 81 332 49 c 4
 295 13 246 -10 185 -10 c 0
 96 -10 30 39 30 123 c 0
 30 217 117 299 289 299 c 2
 328 299 l 2
 360 299 351 315 351 344 c 2
 351 367 l 2
 351 434 328 484 238 484 c 0
 184 484 146 465 146 445 c 0
 146 427 174 432 174 393 c 0
322 261 m 2
 289 261 l 2
 173 261 132 215 132 138 c 0
 132 71 180 46 230 46 c 0
 298 46 351 100 351 191 c 2
 351 210 l 2
 351 245 360 261 322 261 c 2
EndSplineSet
EndChar

StartChar: b
Encoding: 98 98 39
Width: 628
VWidth: 1155
Flags: HMW
LayerCount: 2
Fore
SplineSet
61 725 m 0
 30 725 15 717 15 751 c 0
 15 789 29 780 64 780 c 2
 151 780 l 2
 187 780 195 786 195 748 c 2
 195 493 l 2
 195 391 206 445 235 476 c 0
 267 510 310 529 361 529 c 0
 480 529 583 430 583 260 c 0
 583 90 480 -10 361 -10 c 0
 293 -10 230 19 207 82 c 0
 200 101 195 98 195 61 c 2
 195 37 l 2
 195 -2 192 0 154 0 c 2
 40 0 l 2
 10 0 15 6 15 34 c 4
 15 59 39 55 67 55 c 4
 114 55 105 61 105 151 c 2
 105 685 l 2
 105 727 103 725 61 725 c 0
195 260 m 0
 195 146 252 42 343 42 c 0
 427 42 483 146 483 260 c 0
 483 374 427 478 343 478 c 0
 252 478 195 374 195 260 c 0
EndSplineSet
EndChar

StartChar: c
Encoding: 99 99 40
Width: 548
VWidth: 1155
Flags: HMW
LayerCount: 2
Fore
SplineSet
490 381 m 0
 490 333 455 315 426 315 c 0
 399 315 369 336 369 373 c 0
 369 409 401 414 401 437 c 0
 401 464 358 483 304 483 c 0
 195 483 146 374 146 270 c 0
 146 146 185 39 294 39 c 0
 367 39 415 80 443 144 c 0
 452 164 448 173 479 173 c 4
 502 173 508 170 499 146 c 0
 465 53 403 -10 292 -10 c 0
 121 -10 45 110 45 250 c 0
 45 410 133 530 294 530 c 0
 416 530 490 463 490 381 c 0
EndSplineSet
EndChar

StartChar: d
Encoding: 100 100 41
Width: 628
VWidth: 1155
Flags: HMW
LayerCount: 2
Fore
SplineSet
613 19 m 4
 613 3 600 0 576 0 c 2
 468 0 l 2
 428 0 433 6 433 45 c 2
 433 67 l 2
 433 122 428 90 412 67 c 0
 378 18 329 -10 267 -10 c 0
 148 -10 45 90 45 260 c 0
 45 430 148 529 267 529 c 0
 310 529 348 515 378 490 c 0
 427 449 433 377 433 507 c 2
 433 678 l 2
 433 712 441 725 404 725 c 0
 355 725 343 716 343 768 c 0
 343 787 365 780 382 780 c 2
 486 780 l 2
 531 780 523 768 523 726 c 2
 523 103 l 2
 523 49 524 56 584 55 c 0
 602 55 613 57 613 19 c 4
433 260 m 0
 433 374 376 478 285 478 c 0
 201 478 145 374 145 260 c 0
 145 146 201 42 285 42 c 0
 376 42 433 146 433 260 c 0
EndSplineSet
EndChar

StartChar: e
Encoding: 101 101 42
Width: 553
VWidth: 1155
Flags: HMW
LayerCount: 2
Fore
SplineSet
440 261 m 24
 340 261 184 261 184 261 c 10
 144 261 145 258 148 220 c 0
 157 119 196 39 290 39 c 0
 361 39 410 78 439 139 c 0
 448 159 444 173 475 173 c 0
 511 173 502 163 493 138 c 0
 461 50 394 -10 278 -10 c 0
 127 -10 45 110 45 250 c 0
 45 410 124 530 285 530 c 0
 434 530 489 429 500 310 c 0
 505 255 493 261 440 261 c 24
400 342 m 4
 389 419 358 486 285 486 c 0
 209 486 169 431 155 362 c 0
 143 301 139 304 194 304 c 2
 376 304 l 2
 410 304 404 313 400 342 c 4
EndSplineSet
EndChar

StartChar: f
Encoding: 102 102 43
Width: 400
VWidth: 1155
Flags: HMW
LayerCount: 2
Fore
SplineSet
210 441 m 2
 210 93 l 2
 210 50 216 55 258 55 c 2
 302 55 l 2
 332 55 330 52 330 23 c 0
 330 -7 318 0 290 0 c 2
 72 0 l 2
 50 0 30 -8 30 17 c 0
 30 54 29 55 66 55 c 0
 115 55 120 51 120 101 c 2
 120 419 l 2
 120 449 129 465 96 465 c 2
 54 465 l 2
 23 465 30 476 30 505 c 0
 30 529 46 520 84 520 c 4
 129 520 122 540 120 572 c 1
 120 703 187 790 317 790 c 0
 418 790 485 736 485 679 c 0
 485 636 461 613 426 613 c 0
 391 613 368 633 368 661 c 0
 368 691 389 698 389 718 c 0
 389 730 371 745 319 745 c 0
 239 745 210 677 210 550 c 0
 210 521 209 520 238 520 c 2
 298 520 l 2
 343 520 350 526 350 479 c 0
 350 459 336 465 318 465 c 2
 258 465 l 2
 228 465 210 474 210 441 c 2
EndSplineSet
EndChar

StartChar: g
Encoding: 103 103 44
Width: 597
VWidth: 1155
Flags: HMW
LayerCount: 2
Fore
SplineSet
145 345 m 0
 145 271 170 200 249 200 c 0
 328 200 353 271 353 345 c 0
 353 419 328 490 249 490 c 0
 170 490 145 419 145 345 c 0
50 345 m 0
 50 455 128 530 249 530 c 0
 298 530 340 517 373 495 c 0
 404 474 397 483 425 504 c 0
 449 522 474 530 493 530 c 0
 564 530 597 491 597 439 c 0
 597 405 574 384 544 384 c 0
 516 384 496 403 496 428 c 0
 496 460 515 462 515 478 c 0
 515 488 508 493 496 493 c 0
 478 493 460 487 443 472 c 0
 421 452 425 444 436 416 c 0
 444 395 448 371 448 345 c 0
 448 235 370 160 249 160 c 0
 238 160 227 161 217 162 c 0
 192 165 182 161 163 150 c 0
 141 137 125 121 125 106 c 0
 125 69 167 69 222 69 c 0
 247 69 305 70 333 70 c 0
 428 70 520 54 520 -82 c 0
 520 -193 420 -260 260 -260 c 0
 117 -260 25 -220 25 -135 c 0
 25 -86 51 -47 82 -22 c 0
 120 9 115 -9 82 20 c 0
 66 34 57 54 57 84 c 0
 57 121 84 154 130 174 c 0
 159 187 128 191 110 206 c 4
 72 239 50 287 50 345 c 0
449 -107 m 0
 449 -53 415 -9 350 -9 c 0
 329 -9 258 -9 236 -9 c 0
 217 -9 197 -9 179 -8 c 0
 148 -6 140 -20 131 -40 c 4
 121 -63 120 -87 120 -102 c 0
 120 -170 170 -213 276 -213 c 0
 360 -213 449 -179 449 -107 c 0
EndSplineSet
EndChar

StartChar: h
Encoding: 104 104 45
Width: 660
VWidth: 1155
Flags: HMW
LayerCount: 2
Fore
SplineSet
60 725 m 0
 30 725 15 717 15 750 c 0
 15 790 32 780 68 780 c 2
 168 780 l 2
 202 780 195 770 195 738 c 2
 195 506 l 2
 195 424 182 412 224 462 c 0
 257 502 307 530 378 530 c 0
 505 530 540 476 540 369 c 2
 540 96 l 2
 540 57 538 55 578 55 c 0
 613 55 630 65 630 26 c 0
 630 6 634 0 612 0 c 2
 388 0 l 2
 357 0 361 4 361 34 c 0
 361 61 371 55 396 55 c 2
 434 55 l 2
 459 55 450 82 450 104 c 2
 450 358 l 2
 450 432 421 473 355 473 c 0
 257 473 195 386 195 283 c 2
 195 94 l 2
 195 50 201 55 244 55 c 0
 280 55 285 59 285 22 c 0
 285 -8 271 0 244 0 c 2
 46 0 l 2
 14 0 15 2 15 34 c 0
 15 54 14 55 34 55 c 2
 74 55 l 2
 110 55 105 61 105 96 c 2
 105 680 l 2
 105 725 105 725 60 725 c 0
EndSplineSet
EndChar

StartChar: i
Encoding: 105 105 46
Width: 310
VWidth: 1155
Flags: HMW
LayerCount: 2
Fore
SplineSet
95 700 m 0
 95 733 122 760 155 760 c 0
 188 760 215 733 215 700 c 0
 215 667 188 640 155 640 c 0
 122 640 95 667 95 700 c 0
100 465 m 2
 58 465 l 2
 26 465 25 464 25 496 c 0
 25 524 31 520 58 520 c 2
 172 520 l 2
 213 520 205 507 205 468 c 2
 205 124 l 2
 205 59 192 55 242 55 c 0
 279 55 295 65 295 24 c 0
 295 -5 279 0 252 0 c 6
 70 0 l 2
 41 0 25 -8 25 24 c 0
 25 58 29 55 62 55 c 2
 88 55 l 2
 115 55 115 63 115 90 c 2
 115 414 l 2
 115 435 124 465 100 465 c 2
EndSplineSet
EndChar

StartChar: j
Encoding: 106 106 47
Width: 302
VWidth: 1155
Flags: HMW
LayerCount: 2
Fore
SplineSet
92 700 m 0
 92 733 119 760 152 760 c 0
 185 760 212 733 212 700 c 0
 212 667 185 640 152 640 c 0
 119 640 92 667 92 700 c 0
94 465 m 2
 40 465 l 2
 19 465 25 478 25 497 c 0
 25 524 30 520 56 520 c 2
 168 520 l 6
 211 520 205 510 205 479 c 2
 205 11 l 2
 205 -139 184 -260 43 -260 c 0
 -46 -260 -98 -202 -98 -140 c 0
 -98 -102 -74 -69 -39 -69 c 0
 -5 -69 19 -92 19 -125 c 0
 19 -160 0 -159 0 -179 c 0
 0 -192 6 -216 43 -216 c 0
 154 -216 115 -10 115 104 c 2
 115 429 l 2
 115 454 122 465 94 465 c 2
EndSplineSet
EndChar

StartChar: k
Encoding: 107 107 48
Width: 626
VWidth: 1155
Flags: HMW
LayerCount: 2
Fore
SplineSet
73 725 m 2
 43 725 l 2
 12 725 15 729 15 759 c 0
 15 790 37 780 64 780 c 2
 154 780 l 2
 206 780 195 763 195 714 c 2
 195 375 l 2
 195 310 195 293 240 329 c 2
 373 437 l 2
 394 453 417 465 363 465 c 6
 322 465 l 2
 297 465 304 478 304 501 c 0
 304 528 322 520 346 520 c 2
 535 520 l 2
 559 520 577 528 577 501 c 0
 577 458 567 465 526 465 c 0
 481 465 474 455 451 436 c 2
 328 336 l 0
 291 306 l 1
 317 279 l 0
 491 96 l 2
 512 74 518 55 562 55 c 0
 586 55 591 58 591 33 c 0
 591 9 597 0 571 0 c 2
 397 0 l 2
 368 0 354 -8 354 24 c 0
 354 51 351 55 379 55 c 0
 422 55 414 57 394 78 c 2
 260 216 l 2
 245 231 195 300 195 261 c 2
 195 102 l 2
 195 60 191 55 235 55 c 0
 256 55 275 63 275 39 c 0
 275 -2 273 0 232 0 c 2
 61 0 l 2
 34 0 15 -9 15 21 c 0
 15 59 21 55 58 55 c 0
 92 55 105 47 105 84 c 2
 105 690 l 2
 105 723 107 725 73 725 c 2
EndSplineSet
EndChar

StartChar: l
Encoding: 108 108 49
Width: 300
VWidth: 1155
Flags: HMW
LayerCount: 2
Fore
SplineSet
76 725 m 6
 48 725 l 2
 11 725 15 730 15 766 c 0
 15 788 44 780 64 780 c 2
 154 780 l 2
 189 780 195 785 195 748 c 2
 195 122 l 2
 195 75 183 55 234 55 c 2
 260 55 l 2
 279 55 285 59 285 38 c 2
 285 16 l 2
 285 -2 283 0 266 0 c 2
 48 0 l 2
 12 0 15 3 15 38 c 0
 15 65 48 55 72 55 c 4
 114 55 105 114 105 160 c 2
 105 690 l 2
 105 721 108 725 76 725 c 6
EndSplineSet
EndChar

StartChar: m
Encoding: 109 109 50
Width: 923
VWidth: 1155
Flags: HMW
LayerCount: 2
Fore
SplineSet
56 465 m 0
 24 465 30 475 30 505 c 0
 30 528 55 520 76 520 c 2
 162 520 l 2
 191 520 200 526 200 495 c 0
 200 398 203 444 240 481 c 0
 270 511 310 530 364 530 c 0
 429 530 458 510 478 470 c 0
 506 414 505 446 544 482 c 0
 575 511 617 530 670 530 c 0
 777 530 812 476 812 369 c 2
 812 135 l 2
 812 99 797 55 838 55 c 2
 874 55 l 2
 893 55 893 54 893 35 c 0
 893 -4 888 0 850 0 c 2
 652 0 l 2
 623 0 629 10 629 37 c 0
 629 64 652 55 676 55 c 0
 729 55 722 64 722 115 c 2
 722 358 l 2
 722 432 703 473 647 473 c 0
 539 473 506 386 506 283 c 2
 506 165 l 2
 506 68 489 55 530 55 c 2
 570 55 l 2
 590 55 587 50 587 31 c 0
 587 -8 574 0 538 0 c 2
 374 0 l 2
 350 0 336 -7 336 19 c 0
 336 54 335 55 370 55 c 2
 394 55 l 2
 422 55 416 65 416 91 c 2
 416 155 l 0
 416 358 l 2
 416 432 397 473 341 473 c 0
 243 473 200 386 200 283 c 2
 200 143 l 0
 200 77 l 2
 200 50 207 55 232 55 c 0
 262 55 293 67 293 33 c 0
 293 4 296 0 266 0 c 2
 80 0 l 2
 51 0 30 -10 30 23 c 0
 30 54 29 55 60 55 c 0
 123 55 110 76 110 135 c 2
 110 437 l 2
 110 475 91 465 56 465 c 0
EndSplineSet
EndChar

StartChar: n
Encoding: 110 110 51
Width: 675
VWidth: 1155
Flags: HMW
LayerCount: 2
Fore
SplineSet
62 465 m 0
 24 465 30 473 30 509 c 0
 30 527 58 520 74 520 c 2
 170 520 l 2
 201 520 210 526 210 493 c 2
 210 465 l 2
 210 395 217 436 240 464 c 0
 273 503 322 530 393 530 c 0
 520 530 555 476 555 369 c 2
 555 107 l 2
 555 77 545 55 578 55 c 2
 608 55 l 2
 642 55 645 58 645 23 c 0
 645 -10 622 0 592 0 c 2
 398 0 l 2
 368 0 375 12 375 39 c 0
 375 63 398 55 420 55 c 2
 436 55 l 2
 469 55 465 61 465 93 c 2
 465 358 l 2
 465 432 436 473 370 473 c 0
 307 473 259 437 233 385 c 4
 212 343 210 301 210 243 c 6
 210 95 l 2
 210 53 212 55 254 55 c 0
 295 55 300 59 300 17 c 0
 300 -12 246 0 220 0 c 2
 74 0 l 2
 44 0 30 -8 30 25 c 0
 30 61 38 55 72 55 c 0
 123 55 120 59 120 109 c 2
 120 425 l 2
 120 474 108 465 62 465 c 0
EndSplineSet
EndChar

StartChar: o
Encoding: 111 111 52
Width: 568
VWidth: 1155
Flags: HMW
LayerCount: 2
Fore
SplineSet
45 250 m 0
 45 410 123 530 284 530 c 0
 445 530 523 410 523 270 c 0
 523 110 445 -10 284 -10 c 0
 123 -10 45 110 45 250 c 0
150 270 m 0
 150 146 175 35 284 35 c 0
 393 35 418 146 418 250 c 0
 418 374 393 485 284 485 c 0
 175 485 150 374 150 270 c 0
EndSplineSet
EndChar

StartChar: p
Encoding: 112 112 53
Width: 628
VWidth: 1155
Flags: HMW
LayerCount: 2
Fore
SplineSet
15 494 m 0
 15 528 40 520 73 520 c 2
 167 520 l 2
 204 520 195 505 195 472 c 0
 195 394 199 433 225 465 c 0
 258 507 305 530 361 530 c 0
 480 530 583 430 583 260 c 0
 583 90 480 -9 361 -9 c 0
 310 -9 267 10 235 44 c 0
 208 72 195 137 195 50 c 2
 195 -142 l 2
 195 -189 190 -195 239 -195 c 0
 273 -195 285 -187 285 -224 c 0
 285 -243 289 -250 269 -250 c 2
 57 -250 l 2
 36 -250 15 -258 15 -234 c 0
 15 -188 25 -195 69 -195 c 0
 109 -195 105 -191 105 -152 c 2
 105 432 l 2
 105 471 101 465 59 465 c 4
 12 465 15 473 15 494 c 0
195 260 m 0
 195 146 252 42 343 42 c 0
 427 42 483 146 483 260 c 0
 483 374 427 478 343 478 c 0
 252 478 195 374 195 260 c 0
EndSplineSet
EndChar

StartChar: q
Encoding: 113 113 54
Width: 623
VWidth: 1155
Flags: HMW
LayerCount: 2
Fore
SplineSet
552 -195 m 6
 596 -195 l 2
 617 -195 613 -201 613 -220 c 0
 613 -248 615 -250 586 -250 c 2
 394 -250 l 2
 367 -250 343 -260 343 -230 c 2
 343 -212 l 2
 343 -191 349 -195 368 -195 c 2
 412 -195 l 2
 445 -195 433 -161 433 -132 c 2
 433 -2 l 2
 433 109 435 90 394 45 c 4
 362 10 319 -9 267 -9 c 0
 148 -9 45 90 45 260 c 0
 45 430 148 530 267 530 c 0
 319 530 362 510 394 475 c 0
 424 443 433 385 433 476 c 0
 433 526 440 520 488 520 c 2
 562 520 l 2
 589 520 613 530 613 500 c 0
 613 470 617 465 586 465 c 2
 544 465 l 2
 518 465 523 458 523 434 c 2
 523 -128 l 2
 523 -166 510 -195 552 -195 c 6
433 260 m 0
 433 374 376 478 285 478 c 0
 201 478 145 374 145 260 c 0
 145 146 201 42 285 42 c 0
 376 42 433 146 433 260 c 0
EndSplineSet
EndChar

StartChar: r
Encoding: 114 114 55
Width: 453
VWidth: 1155
Flags: HMW
LayerCount: 2
Fore
SplineSet
240 0 m 6
 36 0 l 2
 11 0 10 -1 10 25 c 0
 10 49 6 55 32 55 c 2
 84 55 l 2
 108 55 100 74 100 95 c 2
 100 431 l 2
 100 461 103 465 72 465 c 2
 34 465 l 2
 10 465 10 465 10 489 c 2
 10 507 l 2
 10 529 45 520 64 520 c 2
 142 520 l 2
 187 520 190 523 190 477 c 4
 190 400 200 460 224 486 c 0
 248 513 282 530 330 530 c 0
 386 530 438 494 438 436 c 0
 438 394 411 360 376 360 c 0
 342 360 315 380 315 411 c 0
 315 447 338 454 338 466 c 0
 338 476 332 481 308 481 c 0
 255 481 213 422 197 347 c 0
 189 309 190 268 190 223 c 2
 190 93 l 2
 190 58 188 55 224 55 c 2
 252 55 l 2
 280 55 280 55 280 27 c 0
 280 -6 271 0 240 0 c 6
EndSplineSet
EndChar

StartChar: s
Encoding: 115 115 56
Width: 470
VWidth: 1155
Flags: HMW
LayerCount: 2
Fore
SplineSet
361 388 m 4
 341 448 277 481 233 481 c 0
 170 481 125 453 125 406 c 0
 125 266 440 350 440 152 c 0
 440 48 360 -12 253 -12 c 0
 201 -12 159 7 130 29 c 0
 105 48 104 65 92 28 c 0
 84 2 88 -10 51 -10 c 0
 22 -10 30 4 30 30 c 2
 30 148 l 2
 30 172 29 173 53 173 c 0
 97 173 82 154 96 124 c 0
 121 71 184 40 233 40 c 0
 313 40 357 82 357 133 c 0
 357 270 47 184 47 380 c 0
 47 484 127 532 212 532 c 0
 256 532 290 518 315 500 c 0
 346 477 344 446 362 498 c 24
 372 524 364 530 389 530 c 24
 411 530 422 536 422 512 c 24
 422 462 422 434 422 384 c 24
 422 356 427 350 397 350 c 24
 359 350 370 360 361 388 c 4
EndSplineSet
EndChar

StartChar: t
Encoding: 116 116 57
Width: 385
VWidth: 1155
Flags: HMW
LayerCount: 2
Fore
SplineSet
332 64 m 4
 307 20 266 -12 204 -12 c 0
 132 -12 103 31 103 86 c 2
 103 405 l 2
 103 440 115 465 76 465 c 2
 42 465 l 2
 17 465 10 460 10 487 c 0
 10 519 10 519 40 520 c 0
 100 523 132 542 137 665 c 0
 138 696 135 700 170 700 c 0
 202 700 193 682 193 653 c 2
 193 555 l 2
 193 521 192 520 226 520 c 2
 304 520 l 2
 331 520 340 526 340 497 c 0
 340 469 343 465 314 465 c 2
 218 465 l 2
 188 465 193 457 193 429 c 2
 193 107 l 2
 193 67 210 50 237 50 c 0
 257 50 275 61 290 81 c 0
 302 97 304 124 328 115 c 0
 358 104 346 89 332 64 c 4
EndSplineSet
EndChar

StartChar: u
Encoding: 117 117 58
Width: 675
VWidth: 1155
Flags: HMW
LayerCount: 2
Fore
SplineSet
120 151 m 2
 120 437 l 2
 120 461 123 465 98 465 c 2
 70 465 l 2
 37 465 30 460 30 495 c 0
 30 529 45 520 76 520 c 2
 166 520 l 2
 200 520 210 527 210 491 c 2
 210 162 l 2
 210 88 239 37 305 37 c 0
 403 37 465 134 465 237 c 2
 465 417 l 2
 465 462 468 465 422 465 c 0
 390 465 375 456 375 491 c 0
 375 523 379 520 410 520 c 2
 510 520 l 2
 559 520 555 515 555 467 c 2
 555 117 l 2
 555 80 543 55 584 55 c 2
 618 55 l 2
 647 55 645 53 645 25 c 0
 645 -7 634 0 604 0 c 2
 512 0 l 2
 475 0 465 -7 465 33 c 0
 465 84 477 115 448 73 c 4
 415 25 362 -10 282 -10 c 0
 155 -10 120 44 120 151 c 2
EndSplineSet
EndChar

StartChar: v
Encoding: 118 118 59
Width: 589
VWidth: 1155
Flags: HMW
LayerCount: 2
Fore
SplineSet
332 151 m 6
 434 427 l 2
 444 454 458 465 416 465 c 2
 380 465 l 2
 354 465 360 475 360 499 c 0
 360 526 369 520 394 520 c 2
 546 520 l 2
 575 520 584 526 584 495 c 0
 584 458 574 465 540 465 c 2
 516 465 l 2
 497 465 497 444 492 431 c 2
 350 51 l 2
 342 29 340 -10 308 -10 c 2
 294 -10 l 2
 261 -10 261 22 252 45 c 2
 103 435 l 2
 93 460 94 465 58 465 c 2
 30 465 l 2
 3 465 5 467 5 493 c 0
 5 514 1 520 24 520 c 2
 214 520 l 2
 258 520 276 531 276 483 c 0
 276 460 268 465 246 465 c 2
 228 465 l 2
 167 465 202 426 215 389 c 2
 281 199 l 2
 299 147 303 72 332 151 c 6
EndSplineSet
EndChar

StartChar: w
Encoding: 119 119 60
Width: 865
VWidth: 1155
Flags: HMW
LayerCount: 2
Fore
SplineSet
305 163 m 6
 405 495 l 2
 411 514 409 520 434 520 c 0
 481 520 477 511 488 477 c 2
 586 165 l 2
 606 99 604 116 621 175 c 2
 690 419 l 2
 703 465 705 465 646 465 c 0
 609 465 606 463 606 501 c 0
 606 532 654 520 682 520 c 2
 808 520 l 2
 847 520 860 529 860 487 c 0
 860 460 853 465 828 465 c 2
 798 465 l 2
 756 465 761 450 752 419 c 2
 648 59 l 2
 637 22 644 -10 592 -10 c 0
 547 -10 553 11 543 43 c 2
 452 335 l 2
 438 380 439 402 422 347 c 2
 331 51 l 2
 323 24 326 -10 288 -10 c 0
 234 -10 239 4 226 43 c 2
 102 423 l 2
 93 449 97 465 60 465 c 2
 30 465 l 2
 0 465 5 473 5 501 c 0
 5 530 31 520 56 520 c 2
 258 520 l 2
 290 520 296 524 296 491 c 0
 296 463 293 465 266 465 c 2
 212 465 l 2
 172 465 183 457 191 429 c 2
 271 165 l 2
 289 107 287 103 305 163 c 6
EndSplineSet
EndChar

StartChar: x
Encoding: 120 120 61
Width: 564
VWidth: 1155
Flags: HMW
LayerCount: 2
Fore
SplineSet
326 356 m 2
 404 442 l 2
 425 465 427 465 384 465 c 0
 365 465 365 465 365 484 c 2
 365 506 l 2
 365 529 398 520 418 520 c 2
 528 520 l 2
 557 520 559 522 559 492 c 0
 559 462 555 465 526 465 c 0
 485 465 476 439 457 418 c 2
 372 324 l 2
 331 279 341 275 377 226 c 2
 461 112 l 2
 479 88 487 55 530 55 c 0
 556 55 559 57 559 30 c 0
 559 -7 549 0 514 0 c 2
 364 0 l 2
 332 0 328 -3 328 30 c 0
 328 57 330 55 356 55 c 2
 393 55 l 1
 368 90 l 0
 323 150 l 2
 295 188 287 229 250 188 c 2
 167 96 l 2
 150 77 109 55 162 55 c 0
 182 55 204 63 204 40 c 0
 204 10 210 0 178 0 c 2
 44 0 l 2
 16 0 5 -7 5 24 c 0
 5 41 -1 55 18 55 c 0
 70 55 77 80 101 106 c 6
 202 218 l 2
 235 254 244 257 214 298 c 2
 116 430 l 2
 103 447 101 465 70 465 c 2
 36 465 l 2
 4 465 5 466 5 498 c 0
 5 530 26 520 54 520 c 2
 226 520 l 2
 256 520 251 514 251 486 c 0
 251 461 246 465 222 465 c 0
 184 465 226 431 237 416 c 2
 277 362 l 2
 300 331 299 326 326 356 c 2
EndSplineSet
EndChar

StartChar: y
Encoding: 121 121 62
Width: 628
VWidth: 1155
Flags: HMW
LayerCount: 2
Fore
SplineSet
136 -260 m 0
 59 -260 13 -198 13 -131 c 0
 13 -85 43 -58 74 -58 c 0
 104 -58 124 -76 124 -107 c 0
 124 -145 82 -140 82 -166 c 0
 82 -189 103 -210 136 -210 c 0
 175 -210 231 -180 278 -60 c 2
 285 -42 l 2
 299 -6 292 6 277 40 c 2
 95 440 l 2
 84 464 80 465 44 465 c 0
 8 465 5 463 5 500 c 0
 5 528 21 520 46 520 c 2
 222 520 l 2
 257 520 276 530 276 492 c 0
 276 462 273 465 244 465 c 2
 222 465 l 2
 165 465 194 442 208 410 c 2
 318 166 l 2
 345 105 343 107 368 170 c 2
 470 430 l 2
 482 461 490 465 444 465 c 0
 407 465 408 467 408 504 c 0
 408 529 432 520 454 520 c 2
 606 520 l 2
 628 520 623 511 623 490 c 0
 623 457 608 465 578 465 c 0
 537 465 541 449 530 422 c 2
 322 -102 l 2
 270 -233 194 -260 136 -260 c 0
EndSplineSet
EndChar

StartChar: z
Encoding: 122 122 63
Width: 550
VWidth: 1155
Flags: HMW
LayerCount: 2
Fore
SplineSet
241 470 m 2
 148 470 123 441 116 384 c 0
 112 352 127 318 84 318 c 0
 51 318 63 351 63 380 c 2
 63 482 l 2
 63 520 64 520 102 520 c 2
 446 520 l 2
 474 520 494 529 494 498 c 0
 494 451 463 432 441 406 c 2
 184 94 l 2
 160 65 129 50 196 50 c 2
 304 50 l 2
 427 50 450 78 454 160 c 0
 455 180 445 214 472 214 c 0
 516 214 505 194 505 154 c 2
 505 58 l 2
 505 10 512 0 462 0 c 6
 100 0 l 2
 74 0 40 -4 40 18 c 0
 40 65 38 47 83 102 c 2
 354 432 l 2
 378 462 399 470 336 470 c 2
 241 470 l 2
EndSplineSet
EndChar

StartChar: comma
Encoding: 44 44 65
Width: 215
Flags: HMW
LayerCount: 2
Fore
SplineSet
40 49 m 4
 40 82 69 108 107 108 c 4
 146 108 177 77 177 4 c 4
 177 -55 142 -129 76 -150 c 4
 52 -158 38 -164 38 -132 c 4
 38 -109 52 -117 69 -110 c 4
 106 -95 134 -56 130 -7 c 4
 129 11 120 -4 113 -7 c 4
 107 -10 101 -10 93 -10 c 4
 60 -10 40 16 40 49 c 4
EndSplineSet
EndChar

StartChar: exclam
Encoding: 33 33 67
Width: 319
Flags: HMW
LayerCount: 2
Fore
SplineSet
218 659 m 0
 209 509 186 396 180 273 c 0
 179 250 188 208 162 208 c 0
 128 208 140 244 138 273 c 4
 132 396 109 509 100 659 c 0
 100 666 100 672 100 678 c 0
 100 724 112 758 159 758 c 0
 206 758 219 724 219 678 c 0
 219 672 218 666 218 659 c 0
100 49 m 0
 100 82 126 108 159 108 c 0
 192 108 218 82 218 49 c 0
 218 16 192 -10 159 -10 c 0
 126 -10 100 16 100 49 c 0
EndSplineSet
EndChar

StartChar: quotesingle
Encoding: 39 39 70
Width: 199
Flags: HMW
LayerCount: 2
Fore
SplineSet
148 679 m 0
 139 617 124 567 119 518 c 0
 118 508 121 488 110 488 c 6
 95 488 l 2
 74 488 81 498 79 516 c 0
 75 566 59 616 50 679 c 0
 49 686 49 691 49 697 c 0
 49 736 70 758 99 758 c 0
 128 758 149 736 149 697 c 0
 149 691 149 686 148 679 c 0
EndSplineSet
EndChar

StartChar: question
Encoding: 63 63 75
Width: 550
Flags: HMW
LayerCount: 2
Fore
SplineSet
149 662 m 0
 149 632 180 631 180 580 c 0
 180 538 147 520 112 520 c 0
 77 520 45 543 45 591 c 0
 45 673 119 760 261 760 c 0
 422 760 500 680 500 550 c 0
 500 457 433 364 323 327 c 0
 299 319 277 326 277 291 c 2
 277 257 l 2
 277 221 285 209 246 209 c 0
 209 209 217 222 217 257 c 2
 217 310 l 2
 217 362 238 354 271 371 c 4
 348 412 399 485 399 570 c 0
 399 644 360 718 261 718 c 0
 177 718 149 684 149 662 c 0
EndSplineSet
Refer: 1 46 N 1 0 0 1 149 0 2
EndChar

StartChar: parenleft
Encoding: 40 40 76
Width: 445
Flags: HMW
LayerCount: 2
Fore
SplineSet
409 -150 m 4
 403 -182 370 -162 346 -153 c 0
 160 -86 55 86 55 325 c 0
 55 560 156 714 336 780 c 0
 358 788 402 812 408 783 c 0
 418 735 382 741 347 723 c 0
 222 657 170 524 170 325 c 0
 170 125 223 -24 349 -93 c 0
 381 -110 418 -105 409 -150 c 4
EndSplineSet
EndChar

StartChar: asterisk
Encoding: 42 42 78
Width: 635
VWidth: 1155
Flags: HMW
LayerCount: 2
Fore
SplineSet
403 503 m 4
 435 492 469 482 507 467 c 0
 514 464 518 462 523 459 c 0
 557 439 565 410 551 385 c 0
 537 360 507 352 473 372 c 0
 468 375 464 378 458 382 c 0
 427 407 401 431 376 453 c 0
 346 479 334 495 345 438 c 0
 351 405 360 370 366 329 c 0
 367 322 367 317 367 311 c 0
 367 272 346 250 317 250 c 0
 288 250 267 272 267 311 c 0
 267 317 267 322 268 329 c 0
 274 370 283 405 289 438 c 0
 300 494 288 479 258 453 c 0
 233 431 207 407 176 382 c 0
 170 378 166 375 161 372 c 0
 127 352 97 360 83 385 c 0
 69 410 77 439 111 459 c 0
 116 462 120 464 127 467 c 0
 163 481 196 492 227 502 c 0
 270 517 283 519 234 536 c 0
 201 547 166 557 127 573 c 0
 120 576 116 578 111 581 c 0
 77 601 69 630 83 655 c 0
 97 680 127 688 161 668 c 0
 166 665 170 662 176 658 c 0
 208 633 234 609 259 587 c 0
 290 560 299 547 288 603 c 0
 282 636 274 671 268 711 c 0
 267 718 267 723 267 729 c 0
 267 768 288 790 317 790 c 0
 346 790 367 768 367 729 c 0
 367 723 367 718 366 711 c 0
 360 673 353 639 347 608 c 0
 336 554 339 555 373 585 c 0
 399 607 425 632 458 658 c 0
 464 662 468 665 473 668 c 0
 507 688 537 680 551 655 c 0
 565 630 557 601 523 581 c 0
 518 578 514 576 507 573 c 0
 467 557 432 547 399 535 c 0
 355 519 360 518 403 503 c 4
EndSplineSet
EndChar

StartChar: at
Encoding: 64 64 79
Width: 1060
VWidth: 1155
Flags: HMW
LayerCount: 2
Fore
SplineSet
664 346 m 0
 664 388 650 478 584 478 c 0
 510 478 435 364 435 240 c 0
 435 173 450 122 514 122 c 0
 575 122 664 218 664 346 c 0
790 -109 m 0
 710 -178 605 -214 469 -214 c 0
 326 -214 65 -112 65 221 c 0
 65 554 312 790 585 790 c 0
 858 790 1005 604 1005 421 c 0
 1005 261 912 70 741 70 c 0
 696 70 668 90 652 117 c 0
 618 176 629 147 592 116 c 0
 558 87 521 70 484 70 c 0
 405 70 334 126 334 230 c 0
 334 380 449 529 568 529 c 0
 618 529 648 509 668 466 c 4
 686 428 686 408 698 460 c 0
 706 495 699 520 745 520 c 0
 814 520 799 509 787 457 c 2
 730 210 l 2
 728 197 716 132 763 132 c 0
 864 132 942 271 942 425 c 0
 942 602 786 737 602 737 c 0
 358 737 170 503 170 231 c 0
 170 -71 351 -159 495 -159 c 0
 579 -159 665 -135 742 -75 c 0
 757 -63 798 -27 812 -41 c 0
 842 -71 827 -77 790 -109 c 0
EndSplineSet
EndChar

StartChar: dollar
Encoding: 36 36 80
Width: 660
Flags: HMW
LayerCount: 2
Fore
SplineSet
350 835 m 0
 385 835 385 835 383 802 c 2
 381 779 l 2
 379 751 388 757 411 752 c 0
 501 734 574 685 574 579 c 0
 574 531 539 513 510 513 c 0
 483 513 453 534 453 571 c 0
 453 607 485 612 485 635 c 0
 485 655 465 683 414 698 c 0
 383 707 376 710 374 672 c 2
 364 506 l 2
 361 453 358 450 404 438 c 0
 509 412 610 368 610 215 c 0
 610 91 533 10 390 -7 c 0
 351 -12 331 1 328 -44 c 0
 326 -75 334 -85 296 -85 c 0
 274 -85 271 -79 272 -62 c 4
 275 -3 277 -10 230 -0 c 0
 109 25 46 98 46 186 c 0
 46 234 81 252 110 252 c 0
 137 252 167 231 167 194 c 0
 167 158 135 153 135 130 c 0
 135 109 161 73 228 54 c 0
 272 41 279 42 282 94 c 2
 294 276 l 2
 298 332 307 347 258 361 c 0
 164 387 80 429 80 555 c 0
 80 695 199 760 320 760 c 0
 329 760 327 775 327 782 c 2
 329 824 l 2
 330 838 336 835 350 835 c 0
170 585 m 0
 170 522 209 492 264 473 c 0
 305 459 306 461 309 510 c 2
 319 660 l 2
 322 713 312 714 265 701 c 0
 202 683 170 638 170 585 c 0
520 190 m 0
 520 264 474 298 412 320 c 0
 379 332 353 352 350 304 c 2
 337 102 l 2
 333 42 337 34 396 48 c 0
 484 69 520 133 520 190 c 0
EndSplineSet
EndChar

StartChar: numbersign
Encoding: 35 35 81
Width: 660
Flags: HMW
LayerCount: 2
Fore
SplineSet
254 805 m 0
 294 805 284 793 280 760 c 2
 258 576 l 2
 254 542 251 540 290 540 c 2
 394 540 l 2
 432 540 429 544 433 577 c 2
 458 784 l 2
 461 806 462 805 486 805 c 0
 530 805 511 774 507 740 c 2
 490 593 l 2
 486 555 473 540 520 540 c 2
 646 540 l 2
 673 540 670 536 670 509 c 0
 670 478 659 485 630 485 c 2
 520 485 l 2
 467 485 476 468 471 423 c 2
 457 304 l 2
 453 273 465 280 496 280 c 2
 602 280 l 2
 627 280 640 287 640 260 c 0
 640 220 634 225 596 225 c 2
 486 225 l 2
 441 225 446 216 442 178 c 2
 423 18 l 2
 420 -12 429 -55 392 -55 c 0
 352 -55 361 -45 365 -12 c 2
 388 190 l 2
 392 226 392 225 352 225 c 2
 254 225 l 2
 209 225 216 212 212 174 c 2
 189 -18 l 2
 185 -49 190 -55 154 -55 c 0
 124 -55 131 -47 134 -22 c 2
 156 166 l 2
 161 209 174 225 122 225 c 2
 32 225 l 2
 2 225 -10 217 -10 250 c 0
 -10 288 3 280 38 280 c 2
 134 280 l 2
 179 280 171 296 175 334 c 2
 187 436 l 2
 192 483 195 485 142 485 c 2
 54 485 l 2
 31 485 20 479 20 504 c 0
 20 541 21 540 58 540 c 2
 166 540 l 2
 212 540 203 566 207 604 c 6
 225 760 l 2
 228 787 221 805 254 805 c 0
386 485 m 2
 278 485 l 2
 256 485 248 489 246 468 c 2
 227 310 l 2
 224 283 221 280 252 280 c 2
 358 280 l 2
 406 280 400 289 405 330 c 2
 419 451 l 2
 423 485 424 485 386 485 c 2
EndSplineSet
EndChar

StartChar: slash
Encoding: 47 47 82
Width: 520
Flags: HMW
LayerCount: 2
Fore
SplineSet
443 780 m 4
 502 780 464 739 450 705 c 2
 131 -96 l 2
 117 -132 121 -150 68 -150 c 0
 23 -150 53 -119 63 -93 c 2
 393 723 l 2
 404 750 402 780 443 780 c 4
EndSplineSet
EndChar

StartChar: percent
Encoding: 37 37 83
Width: 1000
Flags: HMW
LayerCount: 2
Fore
SplineSet
675 210 m 0
 675 108 691 40 765 40 c 0
 839 40 855 108 855 210 c 0
 855 312 839 380 765 380 c 0
 691 380 675 312 675 210 c 0
565 210 m 0
 565 353 652 430 765 430 c 0
 878 430 965 353 965 210 c 0
 965 67 858 -10 765 -10 c 0
 652 -10 565 67 565 210 c 0
728 750 m 0
 777 750 747 720 730 693 c 2
 341 61 l 2
 324 33 320 0 274 0 c 4
 223 0 252 28 270 57 c 2
 667 695 l 2
 682 720 686 750 728 750 c 0
145 540 m 0
 145 438 161 370 235 370 c 0
 309 370 325 438 325 540 c 0
 325 642 309 710 235 710 c 0
 161 710 145 642 145 540 c 0
35 540 m 0
 35 683 122 760 235 760 c 0
 348 760 435 683 435 540 c 0
 435 397 328 320 235 320 c 0
 122 320 35 397 35 540 c 0
EndSplineSet
EndChar

StartChar: hyphen
Encoding: 45 45 85
Width: 460
Flags: HMW
LayerCount: 2
Fore
SplineSet
99 415 m 2
 374 415 l 2
 390 415 400 414 400 396 c 2
 400 382 l 6
 400 361 390 360 371 360 c 2
 91 360 l 2
 61 360 60 359 60 390 c 0
 60 421 70 415 99 415 c 2
EndSplineSet
EndChar

StartChar: plus
Encoding: 43 43 87
Width: 530
Flags: HMW
LayerCount: 2
Fore
SplineSet
337 343 m 6
 431 343 l 2
 467 343 470 345 470 308 c 0
 470 278 444 288 417 288 c 2
 331 288 l 2
 291 288 292 286 292 246 c 2
 292 148 l 2
 292 113 295 110 259 110 c 0
 229 110 238 129 238 156 c 2
 238 250 l 2
 238 292 233 288 193 288 c 2
 95 288 l 2
 57 288 60 291 60 328 c 0
 60 350 77 343 97 343 c 2
 195 343 l 2
 231 343 238 338 238 376 c 2
 238 492 l 2
 238 520 239 520 267 520 c 0
 300 520 292 506 292 476 c 2
 292 390 l 2
 292 344 291 343 337 343 c 6
EndSplineSet
EndChar

StartChar: less
Encoding: 60 60 89
Width: 560
Flags: HMW
LayerCount: 2
Fore
SplineSet
190 360 m 6
 452 259 l 2
 480 248 500 251 500 210 c 0
 500 155 464 189 432 201 c 2
 100 330 l 2
 80 338 60 335 60 365 c 2
 60 410 l 2
 60 440 83 439 104 447 c 2
 448 580 l 2
 472 589 500 616 500 574 c 0
 500 524 482 528 448 515 c 2
 176 410 l 2
 105 383 128 384 190 360 c 6
EndSplineSet
EndChar

StartChar: backslash
Encoding: 92 92 91
Width: 520
Flags: HMW
LayerCount: 2
Fore
SplineSet
133 708 m 6
 451 -78 l 2
 468 -120 503 -150 431 -150 c 0
 396 -150 391 -99 381 -75 c 2
 54 744 l 2
 45 766 29 780 65 780 c 0
 122 780 118 746 133 708 c 6
EndSplineSet
EndChar

StartChar: bracketleft
Encoding: 91 91 92
Width: 325
Flags: HMW
LayerCount: 2
Fore
SplineSet
145 780 m 6
 262 780 l 2
 291 780 295 783 295 753 c 0
 295 724 294 725 265 725 c 2
 181 725 l 2
 131 725 145 697 145 651 c 2
 145 -21 l 2
 145 -63 130 -95 178 -95 c 2
 253 -95 l 2
 290 -95 295 -91 295 -129 c 0
 295 -161 264 -150 235 -150 c 2
 100 -150 l 2
 35 -150 55 -106 55 -48 c 2
 55 725 l 5
 56 795 96 781 145 780 c 6
EndSplineSet
EndChar

StartChar: braceleft
Encoding: 123 123 93
Width: 272
VWidth: 1155
Flags: HMW
LayerCount: 2
Fore
SplineSet
178 -146 m 4
 84 -132 55 -84 55 -10 c 0
 55 127 115 172 115 235 c 4
 115 314 55 251 55 321 c 4
 55 346 64 342 80 348 c 0
 100 355 115 367 115 396 c 0
 115 459 55 504 55 641 c 0
 55 720 88 768 196 778 c 0
 217 780 242 789 242 762 c 0
 242 726 233 736 206 730 c 0
 168 722 148 696 148 647 c 0
 148 571 182 531 182 431 c 0
 182 401 175 377 163 357 c 0
 128 302 119 334 159 279 c 0
 174 259 182 233 182 200 c 0
 182 100 148 60 148 -16 c 0
 148 -57 160 -87 188 -94 c 4
 230 -104 242 -91 242 -126 c 4
 242 -153 204 -150 178 -146 c 4
EndSplineSet
EndChar

StartChar: bar
Encoding: 124 124 96
Width: 300
VWidth: 1155
Flags: HMW
LayerCount: 2
Fore
SplineSet
138 780 m 4
 215 780 195 743 195 673 c 2
 195 -188 l 2
 195 -247 198 -250 138 -250 c 0
 90 -250 105 -216 105 -173 c 2
 105 694 l 2
 105 738 88 780 138 780 c 4
EndSplineSet
EndChar

StartChar: cent
Encoding: 162 162 98
Width: 548
VWidth: 1155
Flags: HMW
LayerCount: 2
Fore
SplineSet
321 615 m 5
 352 615 362 621 358 591 c 0
 351 539 331 531 386 515 c 4
 454 495 490 440 490 381 c 0
 490 333 455 315 426 315 c 0
 399 315 369 336 369 373 c 0
 369 409 401 414 401 437 c 0
 401 453 386 466 363 474 c 0
 336 483 340 469 336 443 c 2
 287 97 l 2
 284 77 268 39 294 39 c 0
 367 39 415 80 443 144 c 0
 452 164 448 173 479 173 c 0
 512 173 508 170 499 146 c 0
 465 53 403 -10 292 -10 c 0
 265 -10 270 -20 267 -43 c 0
 263 -71 269 -85 235 -85 c 1
 197 -85 209 -66 212 -43 c 0
 218 2 214 -3 179 12 c 0
 87 53 45 146 45 250 c 0
 45 391 112 508 239 525 c 4
 301 533 293 522 299 567 c 1
 307 583 293 620 321 615 c 5
232 99 m 2
 281 443 l 2
 287 484 281 488 245 471 c 0
 177 439 146 353 146 270 c 0
 146 203 157 142 184 99 c 0
 206 65 224 41 232 99 c 2
EndSplineSet
EndChar

StartChar: sterling
Encoding: 163 163 99
Width: 530
VWidth: 1155
Flags: HMW
LayerCount: 2
Fore
SplineSet
548 123 m 0
 536 5 462 -30 380 -30 c 0
 243 -30 198 30 135 30 c 0
 90 30 83 -20 64 -20 c 2
 40 -20 l 2
 6 -20 18 22 23 45 c 0
 46 145 147 208 147 261 c 0
 147 357 70 330 -18 330 c 0
 -43 330 -37 342 -37 365 c 0
 -37 387 -35 385 -14 385 c 2
 66 385 l 2
 127 385 112 392 95 431 c 0
 79 467 66 504 66 550 c 0
 66 690 171 760 332 760 c 0
 484 760 558 688 558 606 c 0
 558 558 523 540 494 540 c 0
 467 540 437 561 437 598 c 0
 437 634 469 639 469 662 c 0
 469 689 406 718 332 718 c 0
 213 718 177 634 177 560 c 0
 177 510 191 469 205 431 c 0
 218 396 213 385 262 385 c 2
 380 385 l 2
 408 385 413 389 413 359 c 0
 413 327 409 330 378 330 c 2
 282 330 l 2
 266 330 233 337 233 320 c 0
 233 220 187 183 142 139 c 0
 110 107 61 52 127 88 c 4
 138 94 155 97 170 97 c 0
 270 97 310 63 386 63 c 0
 430 63 470 79 490 110 c 0
 500 125 495 157 518 157 c 0
 551 157 551 154 548 123 c 0
EndSplineSet
EndChar

StartChar: yen
Encoding: 165 165 100
Width: 785
Flags: HMW
LayerCount: 2
Fore
SplineSet
28 750 m 2
 282 750 l 2
 301 750 330 758 330 737 c 0
 330 708 338 695 306 695 c 2
 242 695 l 2
 189 695 221 675 237 651 c 2
 388 425 l 2
 416 383 415 385 442 427 c 2
 604 675 l 2
 619 698 614 695 580 695 c 2
 524 695 l 2
 496 695 485 688 485 719 c 0
 485 742 480 750 504 750 c 2
 742 750 l 2
 774 750 785 757 785 723 c 0
 785 696 786 695 758 695 c 2
 716 695 l 2
 676 695 675 678 660 655 c 2
 499 407 l 0
 469 361 l 2
 456 341 498 350 521 350 c 2
 599 350 l 0
 615 350 625 349 625 331 c 2
 625 317 l 2
 625 296 615 295 596 295 c 0
 492 295 l 2
 462 295 450 303 450 270 c 2
 450 218 l 2
 450 194 459 200 481 200 c 2
 599 200 l 0
 615 200 625 199 625 181 c 2
 625 167 l 2
 625 146 615 145 596 145 c 0
 568 145 450 156 450 131 c 2
 450 99 l 2
 450 56 449 55 492 55 c 2
 542 55 l 2
 575 55 570 48 570 17 c 0
 570 -8 552 0 530 0 c 2
 292 0 l 2
 255 0 245 -7 245 33 c 0
 245 55 246 55 268 55 c 2
 314 55 l 2
 350 55 355 51 355 89 c 2
 355 124 l 2
 355 145 354 145 333 145 c 2
 216 145 l 2
 186 145 185 144 185 175 c 0
 185 206 195 200 224 200 c 2
 296 200 l 1
 302 201 311 200 324 200 c 0
 356 200 355 201 355 233 c 2
 355 273 l 2
 355 298 350 295 326 295 c 2
 216 295 l 2
 186 295 185 294 185 325 c 0
 185 356 195 350 224 350 c 2
 296 350 l 5
 302 351 311 350 324 350 c 0
 328 350 307 381 303 387 c 2
 118 663 l 2
 103 685 103 695 64 695 c 2
 34 695 l 2
 1 695 0 694 0 727 c 0
 0 753 3 750 28 750 c 2
EndSplineSet
EndChar

StartChar: section
Encoding: 167 167 101
Width: 534
VWidth: 1155
Flags: HMW
LayerCount: 2
Fore
SplineSet
357 658 m 0
 357 691 295 709 243 709 c 0
 180 709 125 681 125 634 c 0
 125 518 468 538 468 375 c 0
 468 341 457 309 435 281 c 0
 406 245 399 257 431 221 c 0
 449 201 460 175 460 142 c 0
 460 38 350 -10 245 -10 c 0
 137 -10 21 32 21 148 c 0
 21 196 56 224 85 224 c 0
 112 224 142 203 142 166 c 0
 142 130 110 125 110 102 c 0
 110 69 192 41 244 41 c 0
 307 41 382 69 382 116 c 0
 382 232 29 212 29 375 c 0
 29 424 45 453 72 477 c 0
 109 510 100 499 71 535 c 4
 56 554 47 578 47 608 c 0
 47 712 137 760 232 760 c 0
 340 760 446 718 446 612 c 0
 446 564 411 536 382 536 c 0
 355 536 325 557 325 594 c 0
 325 630 357 635 357 658 c 0
125 407 m 4
 125 337 219 319 308 289 c 0
 346 276 361 263 376 305 c 0
 380 317 382 330 382 343 c 0
 382 414 284 432 194 463 c 0
 147 479 125 481 125 407 c 4
EndSplineSet
EndChar

StartChar: asciitilde
Encoding: 126 126 104
Width: 688
VWidth: 1155
Flags: HMW
LayerCount: 2
Fore
SplineSet
243 437 m 0
 209 437 186 428 173 409 c 0
 156 385 172 343 128 343 c 0
 91 343 98 360 104 389 c 0
 120 472 181 510 249 510 c 0
 369 510 369 416 445 416 c 0
 494 416 518 435 527 473 c 0
 533 499 523 510 558 510 c 0
 603 510 587 472 578 443 c 4
 556 375 501 343 439 343 c 0
 302 343 306 437 243 437 c 0
EndSplineSet
EndChar

StartChar: copyright
Encoding: 169 169 105
Width: 870
Flags: HMW
LayerCount: 2
Fore
SplineSet
40 375 m 4
 40 588 218 760 435 760 c 4
 652 760 830 588 830 375 c 4
 830 162 652 -10 435 -10 c 4
 218 -10 40 162 40 375 c 4
100 375 m 4
 100 190 250 39 435 39 c 4
 620 39 770 190 770 375 c 4
 770 560 620 711 435 711 c 4
 250 711 100 560 100 375 c 4
EndSplineSet
Refer: 14 67 N 0.6 0 0 0.6 182 150 2
EndChar

StartChar: registered
Encoding: 174 174 106
Width: 870
Flags: HMW
LayerCount: 2
Fore
SplineSet
40 375 m 0
 40 588 218 760 435 760 c 0
 652 760 830 588 830 375 c 0
 830 162 652 -10 435 -10 c 0
 218 -10 40 162 40 375 c 0
100 375 m 0
 100 190 250 39 435 39 c 0
 620 39 770 190 770 375 c 0
 770 560 620 711 435 711 c 0
 250 711 100 560 100 375 c 0
EndSplineSet
Refer: 29 82 N 0.6 0 0 0.6 198 148 2
EndChar

StartChar: guillemotleft
Encoding: 171 171 108
Width: 695
Flags: HMW
LayerCount: 2
Fore
SplineSet
470 355 m 2
 624 225 l 2
 650 203 671 198 650 167 c 0
 630 137 621 155 594 174 c 2
 320 365 l 2
 310 372 305 371 305 389 c 0
 305 408 324 413 335 421 c 2
 609 616 l 6
 627 629 637 627 649 609 c 0
 671 576 649 572 622 549 c 2
 456 409 l 2
 424 382 441 380 470 355 c 2
195 350 m 2
 353 217 l 2
 373 200 389 196 373 172 c 0
 353 142 352 147 323 167 c 2
 89 330 l 2
 30 371 25 362 25 387 c 0
 25 416 25 400 105 456 c 2
 331 613 l 2
 353 628 354 632 369 609 c 0
 389 579 376 577 350 555 c 2
 213 440 l 2
 163 398 141 396 195 350 c 2
EndSplineSet
EndChar

StartChar: mu
Encoding: 181 181 111
Width: 675
VWidth: 1155
Flags: HMW
LayerCount: 2
Fore
SplineSet
261 -143 m 0
 294 -143 317 -167 317 -201 c 0
 317 -236 284 -260 246 -260 c 0
 184 -260 120 -211 120 -122 c 2
 120 151 l 1
 120 321 l 1
 120 437 l 2
 120 461 123 465 98 465 c 2
 70 465 l 2
 37 465 30 460 30 495 c 0
 30 529 45 520 76 520 c 2
 166 520 l 2
 200 520 210 527 210 491 c 2
 210 162 l 2
 210 88 239 37 305 37 c 0
 403 37 465 134 465 237 c 2
 465 417 l 2
 465 462 468 465 422 465 c 0
 390 465 375 456 375 491 c 0
 375 523 379 520 410 520 c 2
 510 520 l 2
 559 520 555 515 555 467 c 2
 555 117 l 2
 555 80 543 55 584 55 c 2
 618 55 l 2
 647 55 645 53 645 25 c 0
 645 -7 634 0 604 0 c 2
 512 0 l 2
 475 0 465 -7 465 33 c 0
 465 84 477 115 448 73 c 0
 415 25 362 -10 282 -10 c 0
 255.963689531 -10 233.794068292 -7.73042153928 215 -3.19988104382 c 0
 179.711306406 5.30689103346 170 31.6747638788 170 -22 c 6
 170 -119 l 2
 170 -156 194 -162 207 -162 c 0
 227 -162 226 -143 261 -143 c 0
EndSplineSet
EndChar

StartChar: asciicircum
Encoding: 94 94 113
Width: 545
Flags: HMW
LayerCount: 2
Fore
SplineSet
242 690 m 6
 118 587 l 2
 95 568 90 557 62 573 c 0
 43 584 62 592 74 604 c 2
 214 744 l 2
 231 761 234 770 270 770 c 0
 314 770 319 756 340 735 c 2
 462 613 l 2
 477 598 504 585 480 571 c 0
 451 555 439 577 416 596 c 2
 306 687 l 2
 275 713 273 716 242 690 c 6
EndSplineSet
EndChar

StartChar: degree
Encoding: 176 176 115
Width: 320
Flags: HMW
LayerCount: 2
Fore
SplineSet
40 680 m 0
 40 746 94 800 160 800 c 0
 226 800 280 746 280 680 c 0
 280 614 226 560 160 560 c 0
 94 560 40 614 40 680 c 0
95 680 m 0
 95 643 123 615 160 615 c 4
 197 615 225 643 225 680 c 0
 225 717 197 745 160 745 c 4
 123 745 95 717 95 680 c 0
EndSplineSet
EndChar

StartChar: onequarter
Encoding: 188 188 119
Width: 1000
Flags: HMW
LayerCount: 2
Fore
SplineSet
722 750 m 4
 779.91335329 749 745.204165383 717.794195309 725.661333333 686 c 6
 329.201333333 41 l 6
 314.563307754 17.1854247632 314.695774913 0 274 0 c 4
 207.710969755 0 264.326437975 47.1992027489 282.842666667 77 c 6
 668.690666667 698 l 6
 681.572843707 718.733117555 687.636458144 750.593361287 722 750 c 4
EndSplineSet
Refer: 6 52 N 0.6 0 0 0.6 535 32 2
Refer: 3 49 N 0.6 0 0 0.6 107 456 2
EndChar

StartChar: onehalf
Encoding: 189 189 120
Width: 1000
Flags: HMW
LayerCount: 2
Fore
SplineSet
722 750 m 4
 779.91335329 749 745.204165383 717.794195309 725.661333333 686 c 6
 329.201333333 41 l 6
 314.563307754 17.1854247632 314.695774913 0 274 0 c 4
 207.710969755 0 264.326437975 47.1992027489 282.842666667 77 c 6
 668.690666667 698 l 6
 681.572843707 718.733117555 687.636458144 750.593361287 722 750 c 4
EndSplineSet
Refer: 4 50 N 0.6 0 0 0.6 576 17 2
Refer: 3 49 N 0.6 0 0 0.6 107 456 2
EndChar

StartChar: threequarters
Encoding: 190 190 121
Width: 1000
Flags: HMW
LayerCount: 2
Fore
SplineSet
722 750 m 4
 779.91335329 749 745.204165383 717.794195309 725.661333333 686 c 6
 329.201333333 41 l 6
 314.563307754 17.1854247632 314.695774913 0 274 0 c 4
 207.710969755 0 264.326437975 47.1992027489 282.842666667 77 c 6
 668.690666667 698 l 6
 681.572843707 718.733117555 687.636458144 750.593361287 722 750 c 4
EndSplineSet
Refer: 6 52 N 0.6 0 0 0.6 535 32 2
Refer: 5 51 N 0.6 0 0 0.6 65 457 2
EndChar

StartChar: grave
Encoding: 96 96 123
Width: 395
Flags: HMW
LayerCount: 2
Fore
SplineSet
180 720 m 2
 161 721 145 736 145 755 c 0
 145 774 162 795 190 788 c 2
 404 736 l 2
 416 733 431 735 428 721 c 0
 425 709 422 710 408 711 c 6
 180 720 l 2
EndSplineSet
EndChar

StartChar: acute
Encoding: 180 180 124
Width: 395
Flags: HMW
LayerCount: 2
Fore
SplineSet
195 720 m 2
 -24 711.06122449 l 2
 -37.0155759149 710.529976493 -49.0559501455 706.223800582 -52 718 c 0
 -56.5019975516 736.007990207 -40.0994156257 733.600974557 -24 737.491666667 c 6
 185 788 l 2
 213 795 230 774 230 755 c 0
 230 736 214 721 195 720 c 2
EndSplineSet
EndChar

StartChar: cedilla
Encoding: 184 184 128
Width: 550
Flags: HMW
LayerCount: 2
Fore
SplineSet
218.000004848 -199.793122651 m 4
 301.155426637 -199.907114803 339 -171.091866242 339 -150 c 0
 339 -121.304270466 303.461056019 -103.950757095 212 -99.9120245397 c 0
 169.190602565 -98.0216493939 164.803142776 -101.796000103 186.642857143 -74 c 2
 277 41 l 1
 347 41 l 1
 287.285714286 -35 l 2
 261.607182375 -67.6817678869 272.540464667 -60.0171533988 313.999995227 -69.68133286 c 0
 368.087419045 -82.2890629358 400 -106.712228557 400 -140 c 0
 400 -185.858805742 359.621822769 -240.129731741 221 -241.089611801 c 0
 198.774269605 -241.243512788 181 -247.787767485 181 -221 c 0
 181 -190.492128105 193.113513887 -199.759007441 218.000004848 -199.793122651 c 4
EndSplineSet
EndChar

StartChar: AE
Encoding: 198 198 526
Width: 1197
Flags: HMW
LayerCount: 2
Fore
SplineSet
290 275 m 1
 640 275 l 1
 640 220 l 1
 290 220 l 1
 290 275 l 1
470 55 m 1
 800 55 l 1
 800 0 l 1
 470 0 l 1
 470 55 l 1
0 55 m 1
 280 55 l 1
 280 0 l 1
 0 0 l 1
 0 55 l 1
596 750 m 1
 665 750 l 1
 149 0 l 1
 75 0 l 1
 596 750 l 1
EndSplineSet
Refer: 16 69 N 1 0 0 1 460 0 2
EndChar

StartChar: ae
Encoding: 230 230 529
Width: 736
VWidth: 1155
Flags: HMW
LayerCount: 2
Fore
SplineSet
361 250 m 1
 462 270 l 1
 462 146 497 39 606 39 c 0
 689 39 743 93 768 173 c 1
 819 173 l 1
 793 66 725 -10 594 -10 c 0
 443 -10 361 110 361 250 c 1
438 304 m 1
 762 304 l 1
 762 261 l 1
 438 261 l 1
 438 304 l 1
807 261 m 1
 762 261 l 1
 762 290 l 1
 807 290 l 1
 807 261 l 1
818 261 m 1
 726 261 l 1
 726 364 700 486 601 486 c 0
 492 486 462 374 462 270 c 1
 361 250 l 1
 361 410 440 530 601 530 c 0
 770 530 818 400 818 261 c 1
299 299 m 1
 299 261 l 1
 183 261 142 215 142 138 c 0
 142 71 190 46 240 46 c 0
 308 46 361 79 361 250 c 1
 395 179 l 1
 395 55 326 -10 195 -10 c 4
 106 -10 40 39 40 123 c 0
 40 217 127 299 299 299 c 1
451 367 m 1
 451 271 l 1
 361 273 l 1
 361 377 l 1
 451 367 l 1
70 403 m 1
 70 480 162 530 283 530 c 0
 423 530 451 448 451 367 c 1
 361 367 l 1
 361 434 338 484 258 484 c 0
 204 484 156 465 156 445 c 1
 70 403 l 1
299 299 m 1
 413 299 l 1
 413 261 l 1
 299 261 l 1
 299 299 l 1
184 393 m 0
 184 359 163 340 129 340 c 0
 98 340 70 359 70 403 c 1
 156 445 l 1
 156 427 184 432 184 393 c 0
EndSplineSet
EndChar

StartChar: perthousand
Encoding: 8240 8240 537
Width: 1470
Flags: HMW
LayerCount: 2
Fore
SplineSet
1145 210 m 0
 1145 108 1161 40 1235 40 c 0
 1309 40 1325 108 1325 210 c 0
 1325 312 1309 380 1235 380 c 0
 1161 380 1145 312 1145 210 c 0
1035 210 m 0
 1035 353 1122 430 1235 430 c 0
 1348 430 1435 353 1435 210 c 0
 1435 67 1328 -10 1235 -10 c 0
 1122 -10 1035 67 1035 210 c 0
675 210 m 0
 675 108 691 40 765 40 c 0
 839 40 855 108 855 210 c 0
 855 312 839 380 765 380 c 0
 691 380 675 312 675 210 c 0
565 210 m 0
 565 353 652 430 765 430 c 0
 878 430 965 353 965 210 c 0
 965 67 858 -10 765 -10 c 0
 652 -10 565 67 565 210 c 0
729 750 m 4
 788.292610025 750 742.960397161 714.143813169 726.276 687 c 6
 351.944 78 l 6
 310.67405341 10.8580044626 323.914717035 0 273 0 c 4
 206.378874445 0 253.230409431 29.3407877109 294.648 96 c 6
 674.904 708 l 6
 689.196465172 731.002894591 689.702794982 750 729 750 c 4
145 540 m 0
 145 438 161 370 235 370 c 0
 309 370 325 438 325 540 c 0
 325 642 309 710 235 710 c 0
 161 710 145 642 145 540 c 0
35 540 m 0
 35 683 122 760 235 760 c 0
 348 760 435 683 435 540 c 0
 435 397 328 320 235 320 c 0
 122 320 35 397 35 540 c 0
EndSplineSet
EndChar

StartChar: uni2031
Encoding: 8241 8241 538
Width: 1950
Flags: HMW
LayerCount: 2
Fore
SplineSet
729 750 m 4
 788.292610025 750 742.960397161 714.143813169 726.276 687 c 6
 351.944 78 l 6
 310.67405341 10.8580044626 323.914717035 0 273 0 c 4
 206.378874445 0 253.230409431 29.3407877109 294.648 96 c 6
 674.904 708 l 6
 689.196465172 731.002894591 689.702794982 750 729 750 c 4
1625 210 m 0
 1625 108 1641 40 1715 40 c 0
 1789 40 1805 108 1805 210 c 0
 1805 312 1789 380 1715 380 c 0
 1641 380 1625 312 1625 210 c 0
1515 210 m 0
 1515 353 1602 430 1715 430 c 0
 1828 430 1915 353 1915 210 c 0
 1915 67 1808 -10 1715 -10 c 0
 1602 -10 1515 67 1515 210 c 0
1145 210 m 0
 1145 108 1161 40 1235 40 c 0
 1309 40 1325 108 1325 210 c 0
 1325 312 1309 380 1235 380 c 0
 1161 380 1145 312 1145 210 c 0
1035 210 m 0
 1035 353 1122 430 1235 430 c 0
 1348 430 1435 353 1435 210 c 0
 1435 67 1328 -10 1235 -10 c 0
 1122 -10 1035 67 1035 210 c 0
675 210 m 0
 675 108 691 40 765 40 c 0
 839 40 855 108 855 210 c 0
 855 312 839 380 765 380 c 0
 691 380 675 312 675 210 c 0
565 210 m 0
 565 353 652 430 765 430 c 0
 878 430 965 353 965 210 c 0
 965 67 858 -10 765 -10 c 0
 652 -10 565 67 565 210 c 0
145 540 m 0
 145 438 161 370 235 370 c 0
 309 370 325 438 325 540 c 0
 325 642 309 710 235 710 c 0
 161 710 145 642 145 540 c 0
35 540 m 0
 35 683 122 760 235 760 c 0
 348 760 435 683 435 540 c 0
 435 397 328 320 235 320 c 0
 122 320 35 397 35 540 c 0
EndSplineSet
EndChar

StartChar: uniFB00
Encoding: 64256 64256 542
Width: 750
VWidth: 1155
Flags: HMW
LayerCount: 2
Fore
SplineSet
210 406 m 2
 210 108 l 2
 210 68.3140981224 201.332669245 55 244 55 c 2
 300 55 l 2
 329.35917577 55 330 55.5209250582 330 26 c 0
 330 -7.78414438357 316.974501239 0 286 0 c 2
 66 0 l 2
 30.1215066733 0 30 0.000307465516478 30 36 c 0
 30 63.1735768144 47.6634839225 55 72 55 c 0
 126.473374484 55 120 63.3389915521 120 116 c 2
 120 432 l 2
 120 470.296014228 112.90069729 465 76 465 c 0
 45.480892464 465 30 459.975015605 30 490 c 4
 30 526 35.208983852 520.124349481 80 520 c 4
 114.758540774 519.903502825 120 515.84882868 120 552 c 0
 120 683 207 770 337 770 c 0
 384.362106266 770 424.760393163 758.120543428 453.999997058 739.605209823 c 0
 506.69569017 706.236825592 480.204716864 705.658874936 523.999982048 749.623514571 c 0
 556.846968245 782.597533684 604.757762698 800 667 800 c 0
 768 800 835 756 835 699 c 0
 835 656 811 633 776 633 c 0
 741 633 718 653 718 681 c 0
 718 711 739 718 739 738 c 0
 739 750 721 765 679 765 c 0
 589 765 560 697 560 570 c 2
 560 544 l 2
 560 514.451664824 568.28257275 520 596 520 c 2
 656 520 l 2
 686.900690689 520 700 527.896696484 700 494 c 0
 700 462.331390613 696.773436846 465 666 465 c 2
 582 465 l 2
 551.336307153 465 560 447.789441252 560 420 c 2
 560 102 l 2
 560 58.4434342579 557.000742696 55 602 55 c 2
 644 55 l 2
 669.064072113 55 680 61.5112698964 680 34 c 0
 680 -2.26745917561 677.345771259 0 642 0 c 2
 420 0 l 2
 391.344087902 0 380 -6.94826073432 380 24 c 0
 380 54.3560694029 379.478819176 55 410 55 c 0
 469.26204527 55 470 54.4752569518 470 114 c 2
 470 418 l 2
 470 467.882719888 466.644875518 465 418 465 c 2
 262 465 l 2
 206.117593608 465 210 460.412322937 210 406 c 2
240 520 m 2
 444 520 l 2
 469.91224518 520 470 520.000222058 470 546 c 0
 470 583.729010225 478.805002326 593 446 593 c 0
 411 593 388 613 388 641 c 0
 388 671 409 678 409 698 c 0
 409 710 381 725 339 725 c 0
 249 725 210 657 210 530 c 0
 210 514.427994692 226.200294768 520 240 520 c 2
EndSplineSet
LCarets2: 1 0
Ligature2: "Not your mama's contextual ligatures" f f
EndChar

StartChar: uniFB01
Encoding: 64257 64257 543
Width: 645
VWidth: 1155
Flags: HMW
LayerCount: 2
Fore
SplineSet
210 419 m 2
 210 95 l 2
 210 69.9602510898 202.282928543 55 230 55 c 2
 308 55 l 2
 330.947368536 55 330 53.8989478598 330 31 c 0
 330 -8.33923144312 316.719098912 0 280 0 c 2
 66 0 l 2
 31.7789882549 0 30 -1.52568674551 30 33 c 0
 30 63.4175452693 46.3919729326 55 74 55 c 0
 115.97041229 55 120 51.5697885843 120 95 c 2
 120 409 l 2
 120 457.140881356 126.127211628 465 76 465 c 0
 48.3147093828 465 30 456.020473534 30 487 c 0
 30 526.370953782 54.0682878005 520 76 520 c 4
 115 520 120 533 120 572 c 4
 120 691.519872825 187 790 337 790 c 0
 458 790 525 736 525 679 c 0
 525 636 501 613 466 613 c 0
 431 613 408 633 408 661 c 0
 408 691 429 698 429 718 c 0
 429 730 411 745 349 745 c 0
 249 745 210 687 210 550 c 0
 210 506.744974032 239.304597598 520 278 520 c 2
 498 520 l 2
 534.105661017 520 540 524.595408721 540 487 c 2
 540 99 l 2
 540 55.1485081563 540.000375791 55 584 55 c 0
 623.450359885 55 630 60.0886412069 630 19 c 0
 630 -8.58365801355 610.651943539 0 586 0 c 2
 390 0 l 2
 360.64082423 0 360 -0.520925058174 360 29 c 0
 360 57.172581414 362.596766166 55 390 55 c 2
 420 55 l 2
 462.409393992 55 450 80.9591162423 450 119 c 2
 450 415 l 2
 450 457.127272533 455.961657504 465 412 465 c 2
 246 465 l 2
 205.04041656 465 210 458.582447745 210 419 c 2
EndSplineSet
LCarets2: 1 0
Ligature2: "Not your mama's contextual ligatures" f i
EndChar

StartChar: uniFB02
Encoding: 64258 64258 544
Width: 680
VWidth: 1155
Flags: HMW
LayerCount: 2
Fore
SplineSet
210 424 m 6
 210 106 l 2
 210 60.9159661422 205.194601866 55 252 55 c 2
 288 55 l 2
 310.410776907 55 330 63.2313102751 330 38 c 0
 330 -0.910143274607 328.916293257 0 290 0 c 2
 62 0 l 2
 32.6986041325 0 30 -2.3093808608 30 28 c 0
 30 56.7168958114 32.0029485606 55 60 55 c 2
 96 55 l 2
 131.122766661 55 120 80.6465980596 120 112 c 2
 120 392 l 2
 120 416.543890043 131.020965125 465 104 465 c 2
 62 465 l 2
 29.5839442603 465 30 465.536978519 30 498 c 0
 30 523.996287411 35.4718995328 520 60 520 c 2
 90 520 l 2
 117.319501872 520 120 517.724686789 120 546 c 2
 120 572 l 2
 120 703 197 790 347 790 c 0
 397.731868435 790 437.183726024 780.599990961 466.000005227 765.344351423 c 0
 500.541981082 747.057468206 495.337694456 738.15689438 528 763.513157895 c 0
 550.017730376 780.605869634 575 821.28268786 575 766 c 2
 575 134 l 2
 575 79.8758571432 560.521119146 55 620 55 c 0
 638.532074856 55 665 62.7712832554 665 42 c 0
 665 4.61333015992 668.786002959 0 630 0 c 2
 430 0 l 2
 402.641617748 0 395 -5.2936224617 395 24 c 0
 395 59.0139746402 400.128354498 55 434 55 c 0
 475.306127737 55 485 47.9121223786 485 92 c 2
 485 576 l 2
 485 605.52391128 491.748484561 613 466 613 c 0
 431 613 408 633 408 661 c 0
 408 691 429 698 429 718 c 0
 429 730 411 745 349 745 c 0
 239 745 210 677 210 550 c 0
 210 525.539340836 205.907142513 520 232 520 c 2
 326 520 l 2
 356.867290955 520 350 508.742199605 350 480 c 0
 350 459.260764589 338.823654819 465 320 465 c 2
 248 465 l 2
 208.588084879 465 210 463.356498295 210 424 c 6
EndSplineSet
LCarets2: 1 0
Ligature2: "Not your mama's contextual ligatures" f l
EndChar

StartChar: uniFB03
Encoding: 64259 64259 545
Width: 995
VWidth: 1155
Flags: HMW
LayerCount: 2
Fore
SplineSet
560 426 m 2
 560 88 l 2
 560 45.8739056559 574.720775182 55 614 55 c 2
 658 55 l 2
 681.660484194 55 680 53.0358894962 680 30 c 0
 680 -4.81455838919 673.546088445 0 640 0 c 2
 408 0 l 2
 385.541581788 0 380 -3.99129934343 380 20 c 0
 380 56.4176492138 381.648077599 55 418 55 c 2
 456 55 l 2
 478.437155191 55 470 82.1280999382 470 102 c 2
 470 424 l 2
 470 464.32427319 470.523023252 465 430 465 c 2
 244 465 l 2
 202.1398585 465 210 453.266355271 210 414 c 2
 210 108 l 2
 210 65.3890384713 202.490115867 55 248 55 c 2
 280 55 l 2
 307.409613642 55 330 64.8161771212 330 34 c 0
 330 3.94397742816 333.203598756 0 302 0 c 2
 68 0 l 2
 36.9247185574 0 30 -5.14042877016 30 28 c 0
 30 58.509689502 34.487531239 55 64 55 c 2
 94 55 l 2
 129.696583675 55 120 73.559088706 120 106 c 2
 120 420 l 2
 120 469.696194303 114.221256288 465 66 465 c 0
 40.9359278866 465 30 458.488730104 30 486 c 0
 30 532.503439707 53.7092696404 520 96 520 c 0
 130.100800085 520 120 541.432466644 120 572 c 1
 121 572 l 1
 129 692 214 770 337 770 c 0
 380.073202769 770 416.92530852 760.385577337 444.99999641 744.916027372 c 0
 508.550772697 709.898651117 476.635871468 683.746472971 528.999988345 737.756166657 c 4
 567.060845801 777.013111589 623.620585677 800 697 800 c 0
 818 800 875 736 875 679 c 0
 875 636 851 613 816 613 c 0
 781 613 758 633 758 661 c 0
 758 691 779 698 779 718 c 0
 779 730 761 765 699 765 c 0
 589 765 560 677 560 550 c 0
 560 511.415886306 574.072250493 520 610 520 c 2
 836 520 l 2
 864.951669843 520 890 530.587389459 890 498 c 2
 890 88 l 2
 890 43.4013210678 911.357566396 55 952 55 c 0
 979.365329569 55 980 55.5203561702 980 28 c 0
 980 -10.2060906893 960.759569986 0 926 0 c 2
 744 0 l 2
 718.397754775 0 710 -5.51046298864 710 22 c 0
 710 63.4760653293 723.222619918 55 762 55 c 0
 816.556086209 55 800 91.1656793597 800 140 c 2
 800 404 l 2
 800 446.803347174 810.95621117 465 764 465 c 2
 610 465 l 2
 567.205200391 465 560 470.581638644 560 426 c 2
470 542 m 2
 470 562 l 2
 470 603.458007812 471.196182113 593 446 593 c 0
 411 593 388 613 388 641 c 0
 388 671 409 678 409 698 c 0
 409 710 381 725 339 725 c 0
 249 725 210 657 210 530 c 0
 210 514.713679156 224.441036507 520 238 520 c 2
 436 520 l 2
 461.602245225 520 470 514.489537011 470 542 c 2
EndSplineSet
LCarets2: 2 0 0
Ligature2: "Not your mama's contextual ligatures" f f i
EndChar

StartChar: uniFB04
Encoding: 64260 64260 546
Width: 995
VWidth: 1155
Flags: HMW
LayerCount: 2
Fore
SplineSet
560 439 m 2
 560 89 l 2
 560 55.6533463774 559.478146134 55 593 55 c 2
 647 55 l 2
 678.225036907 55 680 56.5199048313 680 25 c 0
 680 -4.88280368214 673.151678713 0 645 0 c 2
 417 0 l 2
 383.96019005 0 380 -3.26520622786 380 31 c 0
 380 52.9760469006 378.267964354 55 401 55 c 2
 435 55 l 2
 473.652595569 55 470 59.4945784426 470 97 c 2
 470 411 l 2
 470 453.189333184 478.175706001 465 433 465 c 2
 249 465 l 2
 209.606273595 465 210 464.464282081 210 425 c 2
 210 97 l 2
 210 51.7032965788 213.914406113 55 258 55 c 2
 300 55 l 2
 319.646428902 55 330 60.6658418579 330 39 c 0
 330 10.5853035588 336.633758191 0 306 0 c 2
 72 0 l 2
 43.988860421 0 30 -7.84570447468 30 23 c 0
 30 53.7979832074 28.9724046489 55 60 55 c 2
 88 55 l 2
 125.950617385 55 120 63.2099358904 120 99 c 2
 120 419 l 2
 120 445.782583315 129.018289963 465 99 465 c 2
 59 465 l 2
 27.3313906127 465 30 468.226563154 30 499 c 0
 30 530.320065414 55.1195131481 520 83 520 c 0
 127.300601011 520 120 530.275344692 120 572 c 1
 121 572 l 1
 129 692 214 770 337 770 c 0
 387.0839552 770 428.756866884 757.001114567 457.999996807 736.913252884 c 0
 511.923449993 699.871839333 482.955965343 691.013272599 529.999988244 738.779523216 c 4
 568.048634064 777.412298217 624.260523697 800 697 800 c 0
 740.401572167 800 775.734905501 791.931761166 803 778.737924254 c 0
 822.942513823 769.087553338 829.552533697 753.840116642 847 767.163636364 c 2
 879 791.6 l 2
 897.907518403 806.038468599 890 776.236640052 890 753 c 2
 890 91 l 2
 890 56.7789882549 888.474313254 55 923 55 c 2
 947 55 l 2
 967.212481711 55 980 61.4157546556 980 39 c 0
 980 8.32898802597 985.822322232 0 953 0 c 2
 741 0 l 2
 710.104630746 0 710 0.000264761972531 710 31 c 0
 710 63.9311452383 727.069120846 55 757 55 c 0
 806.360380599 55 800 63.3604970793 800 111 c 2
 800 565 l 2
 800 616.019256468 791.286794278 607.298929374 769.478295278 630.999999216 c 0
 762.084016157 639.035963813 758 649.379854382 758 661 c 0
 758 691 779 698 779 718 c 0
 779 730 761 765 699 765 c 0
 589 765 560 677 560 550 c 0
 560 508.274635999 583.17052706 520 621 520 c 2
 681 520 l 2
 707.328046836 520 710 522.257783734 710 495 c 0
 710 463.574628055 708.342322196 465 677 465 c 2
 593 465 l 2
 564.584428806 465 560 468.582772668 560 439 c 2
470 545 m 2
 470 572 l 2
 470 603.45771276 471.196182113 593 446 593 c 0
 411 593 388 613 388 641 c 0
 388 671 409 678 409 698 c 0
 409 710 381 725 339 725 c 0
 249 725 210 657 210 530 c 0
 210 515.129200167 221.756534072 520 235 520 c 2
 423 520 l 2
 453.722667053 520 470 511.114382673 470 545 c 2
EndSplineSet
LCarets2: 2 0 0
Ligature2: "Not your mama's contextual ligatures" f f l
EndChar

StartChar: uniFFFD
Encoding: 65533 65533 547
Width: 775
Flags: HW
LayerCount: 2
Fore
SplineSet
716 0 m 2
 680 0 l 2
 467 0 651 345 425 345 c 2
 290 345 l 2
 252.220718395 345 245 350.439921995 245 311 c 2
 245 111 l 2
 245 66.7936573421 236.709091583 55 284 55 c 2
 326 55 l 2
 355.425437918 55 355 54.4622884547 355 25 c 0
 355 -7.68695566513 341.942046884 0 312 0 c 2
 92 0 l 2
 55.2642453035 0 40 -9.28067600229 40 31 c 0
 40 55.9438766976 41.0976463846 55 66 55 c 2
 116 55 l 2
 154.071942542 55 150 60.1262712025 150 97 c 2
 150 667 l 2
 150 697.197802281 147.390395925 695 118 695 c 2
 74 695 l 2
 42.7178505636 695 40 692.657670944 40 725 c 0
 40 756.620379197 50.4687263857 750 80 750 c 2
 435 750 l 2
 616 750 685 660 685 550 c 0
 685 472.659972663 646.954101562 410.681640625 562.129882812 385 c 4
 517.901367188 371.609375 519.004882812 372.82421875 558.345703125 355 c 4
 710.791992188 285.930664062 611.771629581 55.0000000866 706 55 c 2
 722 55 l 2
 751.685386289 55 755 57.7628939639 755 27 c 0
 755 -5.71185060427 746.758462826 0 716 0 c 2
292 405 m 2
 435 405 l 2
 511 405 585 451 585 550 c 0
 585 649 511 695 435 695 c 2
 292 695 l 2
 248.443434258 695 245 697.999257304 245 653 c 2
 245 451 l 2
 245 404.628992251 245.534856098 405 292 405 c 2
EndSplineSet
EndChar
